<?xml version="1.0" encoding="utf-8"?>
<!-- Generator: Adobe Illustrator 19.0.0, SVG Export Plug-In . SVG Version: 6.00 Build 0)  -->
<svg version="1.1" xmlns="http://www.w3.org/2000/svg" xmlns:xlink="http://www.w3.org/1999/xlink" x="0px" y="0px" width="490px"
	 height="430px" viewBox="0 0 490 430" style="enable-background:new 0 0 490 430;" xml:space="preserve">
<style type="text/css">
	.st0{display:none;}
	.st1{display:inline;fill:#3383DB;}
	.st2{fill:#2170B7;}
	.st3{fill:url(#SVGID_1_);}
	.st4{fill:url(#SVGID_2_);}
	.st5{fill:url(#SVGID_3_);}
	.st6{fill:none;stroke:#F4973B;stroke-width:1.8589;stroke-linecap:round;stroke-miterlimit:10;}
	.st7{fill:url(#SVGID_4_);}
	.st8{fill:url(#SVGID_5_);}
	.st9{fill:url(#SVGID_6_);}
	.st10{fill:url(#SVGID_7_);}
	.st11{fill:url(#SVGID_8_);}
	.st12{fill:url(#SVGID_9_);}
	.st13{fill:#FFB719;}
	.st14{fill:url(#SVGID_10_);}
	.st15{fill:url(#SVGID_11_);}
	.st16{fill:url(#SVGID_12_);}
	.st17{fill:url(#SVGID_13_);}
	.st18{fill:#FF9CBB;}
	.st19{fill:#E24B81;}
	.st20{fill:#FFC2D5;}
	.st21{fill:#DB95B2;}
	.st22{fill:#FF5A85;}
	.st23{enable-background:new    ;}
	.st24{fill:#1B6E8E;}
	.st25{fill:#2E9BC6;}
	.st26{fill:#4DBDF4;}
	.st27{fill:#8AE9FF;}
	.st28{fill:#C5F7FF;}
	.st29{fill:#CED2D6;}
	.st30{fill:#3EB5C1;}
	.st31{fill:#60CFE2;}
	.st32{fill:#30A5B2;}
	.st33{fill:#B6F1FF;}
	.st34{fill:#84D6EF;}
	.st35{fill:#9EE4EF;}
	.st36{fill:#7FD4DD;}
	.st37{fill:#2795B7;}
	.st38{fill:#553DB7;}
	.st39{fill:#704CE0;}
	.st40{fill:#636363;}
	.st41{fill:#7A5FED;}
	.st42{fill:#EAAA28;}
	.st43{clip-path:url(#SVGID_15_);enable-background:new    ;}
	.st44{fill:#313131;}
	.st45{fill:#494949;}
	.st46{fill:#FFDC39;}
	.st47{fill:#F76C34;}
	.st48{clip-path:url(#SVGID_17_);enable-background:new    ;}
	.st49{fill:#FF691B;}
	.st50{fill:#FFB039;}
	.st51{fill:#FFA039;}
	.st52{fill:#BBB0FF;}
	.st53{fill:#967DFF;}
	.st54{fill:#A6A6A6;}
	.st55{fill:#CCCCCC;}
	.st56{fill:#787878;}
	.st57{fill:#FC77AD;}
	.st58{fill:#B1A4FF;}
	.st59{fill:#FFF1B8;}
	.st60{fill:#33A5D1;}
	.st61{fill:#F99858;}
	.st62{fill:#826049;}
	.st63{fill:#774E37;}
	.st64{fill:#FFC67B;}
	.st65{fill:#878787;}
	.st66{fill:#F9B858;}
	.st67{fill:#8C8C8C;}
	.st68{fill:#F97A47;}
	.st69{fill:#F0F0F0;}
	.st70{fill:#FFD7E5;}
	.st71{fill:#7D7D7D;}
	.st72{fill:#E887AA;}
	.st73{opacity:0.47;fill:#FFFFFF;}
	.st74{fill:#FF88AD;}
	.st75{opacity:0.35;fill:url(#SVGID_18_);}
	.st76{opacity:0.3;fill:url(#SVGID_19_);}
</style>
<g id="BACKGROUND" class="st0">
	<rect x="-5" y="-35" class="st1" width="500" height="500"/>
</g>
<g id="OBJECTS">
	<g>
		<path class="st2" d="M2.91,256.5l97.49,168.84l131.03,0.08c0,0,14.06,6.31,29.71,0.27l112.21-0.35l-97.49-168.84L2.91,256.5z"/>
		<g>
			<g>
				
					<linearGradient id="SVGID_1_" gradientUnits="userSpaceOnUse" x1="54.2793" y1="328.1658" x2="459.5106" y2="328.1658" gradientTransform="matrix(0.866 0.5 -0.5 0.866 140.9851 -91.2215)">
					<stop  offset="0" style="stop-color:#1BBC72"/>
					<stop  offset="1" style="stop-color:#3AB7DD"/>
				</linearGradient>
				<path class="st3" d="M364.31,385.18l-0.18,0.1l-81.31-140.83l-234.47,0.01l-27.8-18.51l-2.08,3.61l97.49,168.84l131.03,0.08
					c0,0,16.13,9.85,29.71,0.27l112.21-0.35l2.08-3.61L364.31,385.18z"/>
				
					<linearGradient id="SVGID_2_" gradientUnits="userSpaceOnUse" x1="197.7987" y1="417.752" x2="315.9912" y2="213.0365" gradientTransform="matrix(0.866 0.5 -0.5 0.866 140.9851 -91.2215)">
					<stop  offset="0" style="stop-color:#35F9AE"/>
					<stop  offset="1" style="stop-color:#69CDFF"/>
				</linearGradient>
				<path class="st4" d="M20.55,225.95l97.49,168.84l131.03,0.08c0,0,14.06,6.31,29.71,0.27L391,394.78l-97.49-168.84L20.55,225.95z
					"/>
				
					<linearGradient id="SVGID_3_" gradientUnits="userSpaceOnUse" x1="334.2167" y1="365.5254" x2="348.3739" y2="341.0044" gradientTransform="matrix(0.866 0.5 -0.5 0.866 140.9851 -91.2215)">
					<stop  offset="0" style="stop-color:#35F9AE"/>
					<stop  offset="1" style="stop-color:#2FA5D3"/>
				</linearGradient>
				<path class="st5" d="M245.39,385.45l3.68,9.42l0.96,0.38c3.37,1.26,15.48,5.02,28.75-0.11l-6.31-15.41l-9.24-16.95
					L245.39,385.45z"/>
			</g>
			<path class="st6" d="M267.84,373.23"/>
			
				<linearGradient id="SVGID_4_" gradientUnits="userSpaceOnUse" x1="191.9838" y1="275.1951" x2="447.2473" y2="275.1951" gradientTransform="matrix(0.866 0.5 -0.5 0.866 140.9851 -91.2215)">
				<stop  offset="0" style="stop-color:#ADF2D3"/>
				<stop  offset="0.9514" style="stop-color:#7CF0FC"/>
			</linearGradient>
			<path class="st7" d="M375.05,368.69l-6.17-1.09l-0.2,0.8l-82.14-142.42l-106.99-0.05l88.28,147.29c0,0,4.28,2.47,7.52,15.48
				l105.01-0.06l7.31-12.66L375.05,368.69z"/>
			
				<linearGradient id="SVGID_5_" gradientUnits="userSpaceOnUse" x1="282.8766" y1="308.3295" x2="335.6842" y2="216.864" gradientTransform="matrix(0.866 0.5 -0.5 0.866 140.9851 -91.2215)">
				<stop  offset="0.6" style="stop-color:#78E6FF"/>
				<stop  offset="1" style="stop-color:#CAFFE9"/>
			</linearGradient>
			<path class="st8" d="M267.58,372.8c21.77-26.41,92.46,5.8,120.11,3.19l-97.63-166.88c-33.55,7.83-105.77-24.74-121.99-2.27
				L267.58,372.8z"/>
			
				<linearGradient id="SVGID_6_" gradientUnits="userSpaceOnUse" x1="61.9846" y1="345.7112" x2="342.0789" y2="345.7112" gradientTransform="matrix(0.866 0.5 -0.5 0.866 140.9851 -91.2215)">
				<stop  offset="0" style="stop-color:#ADF2D3"/>
				<stop  offset="0.9514" style="stop-color:#7CF0FC"/>
			</linearGradient>
			<path class="st9" d="M263.91,367.86l-28.42-20.49l-7.71,1.11l-70.75-122.53l-106.84,0.32l2.63-3.29l-10.2-9.28l-4.85-2.15
				l-8.5,14.72l93.83,162.66l123.9-0.31c12.02-14.14,20.85-15.38,20.85-15.38L263.91,367.86z"/>
			
				<linearGradient id="SVGID_7_" gradientUnits="userSpaceOnUse" x1="172.3931" y1="377.6457" x2="231.6315" y2="275.0419" gradientTransform="matrix(0.866 0.5 -0.5 0.866 140.9851 -91.2215)">
				<stop  offset="0" style="stop-color:#CAFFE9"/>
				<stop  offset="0.2757" style="stop-color:#78E6FF"/>
			</linearGradient>
			<path class="st10" d="M267.84,373.23C242,340.5,177,379.97,131.59,374.2L37.77,211.54c0,0,107.09-40.45,130.3-4.71L267.84,373.23
				z"/>
			
				<linearGradient id="SVGID_8_" gradientUnits="userSpaceOnUse" x1="175.0754" y1="357.1956" x2="224.7838" y2="271.098" gradientTransform="matrix(0.866 0.5 -0.5 0.866 140.9851 -91.2215)">
				<stop  offset="0" style="stop-color:#CAFFE9"/>
				<stop  offset="0.5081" style="stop-color:#78E6FF"/>
			</linearGradient>
			<path class="st11" d="M46.55,188.81c41.37,27.33,96.68-23.5,121.7,18.22l99.33,165.77c-25.02-41.73-80.34,9.11-121.7-18.22
				L46.55,188.81z"/>
			
				<linearGradient id="SVGID_9_" gradientUnits="userSpaceOnUse" x1="42.3126" y1="289.6546" x2="341.6365" y2="289.6546" gradientTransform="matrix(0.866 0.5 -0.5 0.866 140.9851 -91.2215)">
				<stop  offset="0" style="stop-color:#CAFFE9"/>
				<stop  offset="1" style="stop-color:#8FE5FF"/>
			</linearGradient>
			<path class="st12" d="M160.06,298.72c30.48,69.27,73.05,23.27,107.52,74.08l-99.52-165.96c-25.64-45.81-62.81-19.38-107.52-74.08
				L160.06,298.72z"/>
			<g>
				<path class="st13" d="M246.53,389.42c-0.06-0.03-0.12-0.08-0.17-0.13c-0.38-0.35-0.4-0.94-0.05-1.31
					c0.54-0.58,13.41-14.3,21.37-15.66l0.28-0.05l0.26,0.12c0.26,0.12,6.42,3.07,8.87,17.15c0.09,0.51-0.25,0.99-0.76,1.08
					c-0.5,0.09-0.99-0.25-1.08-0.76c-1.99-11.45-6.51-14.96-7.58-15.65c-7.39,1.59-19.88,14.9-20,15.04
					C247.37,389.57,246.9,389.63,246.53,389.42z"/>
			</g>
			
				<linearGradient id="SVGID_10_" gradientUnits="userSpaceOnUse" x1="273.9449" y1="302.6108" x2="330.1689" y2="205.2281" gradientTransform="matrix(0.866 0.5 -0.5 0.866 140.9851 -91.2215)">
				<stop  offset="0.3135" style="stop-color:#8FE5FF"/>
				<stop  offset="1" style="stop-color:#CAFFE9"/>
			</linearGradient>
			<path class="st14" d="M286.46,191.47c-13.76,16.01-100.41-29.31-117.9,15.25l99.28,166.51c17.49-44.57,104.14,0.76,117.9-15.25
				L286.46,191.47z"/>
			
				<linearGradient id="SVGID_11_" gradientUnits="userSpaceOnUse" x1="261.8312" y1="295.617" x2="330.2963" y2="177.0319" gradientTransform="matrix(0.866 0.5 -0.5 0.866 140.9851 -91.2215)">
				<stop  offset="0" style="stop-color:#51D5F4"/>
				<stop  offset="0.1241" style="stop-color:#70E0F1"/>
				<stop  offset="0.283" style="stop-color:#90EBEE"/>
				<stop  offset="0.4475" style="stop-color:#AAF4EC"/>
				<stop  offset="0.6175" style="stop-color:#BCFAEA"/>
				<stop  offset="0.7967" style="stop-color:#C7FEE9"/>
				<stop  offset="1" style="stop-color:#CAFFE9"/>
			</linearGradient>
			<path class="st15" d="M291.83,151.8c-17.18,44.78-105.78,10.35-123.27,54.92l99.28,166.51c13.14-67.69,97.92-9.9,123.27-54.92
				L291.83,151.8z"/>
			
				<linearGradient id="SVGID_12_" gradientUnits="userSpaceOnUse" x1="54.2793" y1="385.7158" x2="223.1257" y2="385.7158" gradientTransform="matrix(0.866 0.5 -0.5 0.866 140.9851 -91.2215)">
				<stop  offset="0" style="stop-color:#25D88B"/>
				<stop  offset="1" style="stop-color:#4DC5F4"/>
			</linearGradient>
			<polygon class="st16" points="118.04,394.79 115.96,398.4 18.47,229.55 20.55,225.95 			"/>
			
				<linearGradient id="SVGID_13_" gradientUnits="userSpaceOnUse" x1="61.9845" y1="369.2907" x2="224.5701" y2="369.2907" gradientTransform="matrix(0.866 0.5 -0.5 0.866 140.9851 -91.2215)">
				<stop  offset="0" style="stop-color:#CAFFE9"/>
				<stop  offset="0.9514" style="stop-color:#78E6FF"/>
			</linearGradient>
			<polygon class="st17" points="123.09,388.93 131.59,374.2 37.77,211.54 29.27,226.26 			"/>
		</g>
		<g>
			<polygon class="st18" points="166.02,194.66 214.7,180.44 170.71,138.38 122.02,152.6 			"/>
			
				<rect x="135.12" y="111.7" transform="matrix(0.2804 0.9599 -0.9599 0.2804 235.1066 -39.5054)" class="st19" width="17.57" height="50.72"/>
			<polygon class="st20" points="127.28,148.55 123.83,136.75 161.32,125.76 164.76,137.56 			"/>
			<polygon class="st21" points="161.32,125.76 160.42,126.03 163.68,137.18 127.09,147.91 127.28,148.55 164.76,137.56 			"/>
			<polygon class="st19" points="164.88,199.34 166.02,194.66 214.7,180.44 213.56,185.11 			"/>
			<polygon class="st22" points="164.88,199.34 118.04,153.77 115.2,143.52 117.1,135.74 122.02,152.6 166.02,194.66 			"/>
			<g>
				<g class="st23">
					<g>
						<polygon class="st24" points="174.93,148.46 174.44,150.33 167.46,152.5 167.96,150.63 						"/>
					</g>
					<g>
						<polygon class="st25" points="167.96,150.63 167.46,152.5 162.04,147.27 162.54,145.4 						"/>
					</g>
					<g>
						<polygon class="st26" points="169.51,143.23 174.93,148.46 167.96,150.63 162.54,145.4 						"/>
					</g>
				</g>
				<g class="st23">
					<g>
						<polygon class="st24" points="165.52,151.39 165.02,153.26 158.04,155.43 158.54,153.56 						"/>
					</g>
					<g>
						<polygon class="st25" points="158.54,153.56 158.04,155.43 152.62,150.2 153.12,148.33 						"/>
					</g>
					<g>
						<polygon class="st26" points="160.1,146.16 165.52,151.39 158.54,153.56 153.12,148.33 						"/>
					</g>
				</g>
				<g class="st23">
					<g>
						<polygon class="st24" points="156.11,154.32 155.61,156.19 148.63,158.36 149.13,156.49 						"/>
					</g>
					<g>
						<polygon class="st25" points="149.13,156.49 148.63,158.36 143.21,153.13 143.71,151.26 						"/>
					</g>
					<g>
						<polygon class="st26" points="150.68,149.09 156.11,154.32 149.13,156.49 143.71,151.26 						"/>
					</g>
				</g>
				<g class="st23">
					<g>
						<polygon class="st24" points="146.69,157.25 146.2,159.12 139.21,161.29 139.71,159.42 						"/>
					</g>
					<g>
						<polygon class="st25" points="139.71,159.42 139.21,161.29 133.79,156.06 134.29,154.19 						"/>
					</g>
					<g>
						<polygon class="st26" points="141.27,152.02 146.69,157.25 139.71,159.42 134.29,154.19 						"/>
					</g>
				</g>
				<g class="st23">
					<g>
						<polygon class="st24" points="189.08,162.12 188.58,163.98 181.61,166.15 182.1,164.29 						"/>
					</g>
					<g>
						<polygon class="st25" points="182.1,164.29 181.61,166.15 169.11,154.09 169.61,152.23 						"/>
					</g>
					<g>
						<polygon class="st26" points="176.59,150.06 189.08,162.12 182.1,164.29 169.61,152.23 						"/>
					</g>
				</g>
				<g class="st23">
					<g>
						<polygon class="st24" points="172.6,158.22 172.1,160.08 165.11,162.26 165.61,160.39 						"/>
					</g>
					<g>
						<polygon class="st25" points="165.61,160.39 165.11,162.26 159.69,157.03 160.19,155.16 						"/>
					</g>
					<g>
						<polygon class="st26" points="167.18,152.98 172.6,158.22 165.61,160.39 160.19,155.16 						"/>
					</g>
				</g>
				<g class="st23">
					<g>
						<polygon class="st24" points="163.18,161.15 162.68,163.02 155.7,165.19 156.2,163.32 						"/>
					</g>
					<g>
						<polygon class="st25" points="156.2,163.32 155.7,165.19 150.28,159.95 150.78,158.09 						"/>
					</g>
					<g>
						<polygon class="st26" points="157.76,155.92 163.18,161.15 156.2,163.32 150.78,158.09 						"/>
					</g>
				</g>
				<g class="st23">
					<g>
						<polygon class="st24" points="153.77,164.08 153.27,165.94 146.29,168.12 146.78,166.25 						"/>
					</g>
					<g>
						<polygon class="st25" points="146.78,166.25 146.29,168.12 140.86,162.89 141.36,161.02 						"/>
					</g>
					<g>
						<polygon class="st26" points="148.35,158.84 153.77,164.08 146.78,166.25 141.36,161.02 						"/>
					</g>
				</g>
				<g class="st23">
					<g>
						<polygon class="st24" points="179.67,165.04 179.17,166.91 172.19,169.09 172.69,167.22 						"/>
					</g>
					<g>
						<polygon class="st25" points="172.69,167.22 172.19,169.09 166.76,163.85 167.26,161.98 						"/>
					</g>
					<g>
						<polygon class="st26" points="174.25,159.81 179.67,165.04 172.69,167.22 167.26,161.98 						"/>
					</g>
				</g>
				<g class="st23">
					<g>
						<polygon class="st24" points="170.25,167.98 169.76,169.84 162.78,172.01 163.28,170.15 						"/>
					</g>
					<g>
						<polygon class="st25" points="163.28,170.15 162.78,172.01 157.35,166.78 157.85,164.91 						"/>
					</g>
					<g>
						<polygon class="st26" points="164.83,162.74 170.25,167.98 163.28,170.15 157.85,164.91 						"/>
					</g>
				</g>
				<g class="st23">
					<g>
						<polygon class="st24" points="160.84,170.9 160.34,172.77 153.36,174.95 153.86,173.08 						"/>
					</g>
					<g>
						<polygon class="st25" points="153.86,173.08 153.36,174.95 147.93,169.71 148.43,167.84 						"/>
					</g>
					<g>
						<polygon class="st26" points="155.42,165.67 160.84,170.9 153.86,173.08 148.43,167.84 						"/>
					</g>
				</g>
				<g class="st23">
					<g>
						<polygon class="st24" points="203.23,175.77 202.73,177.64 195.75,179.81 196.25,177.94 						"/>
					</g>
					<g>
						<polygon class="st25" points="196.25,177.94 195.75,179.81 183.26,167.75 183.75,165.88 						"/>
					</g>
					<g>
						<polygon class="st26" points="190.73,163.71 203.23,175.77 196.25,177.94 183.75,165.88 						"/>
					</g>
				</g>
				<g class="st23">
					<g>
						<polygon class="st24" points="186.75,171.87 186.25,173.74 179.26,175.91 179.76,174.05 						"/>
					</g>
					<g>
						<polygon class="st25" points="179.76,174.05 179.26,175.91 173.84,170.68 174.34,168.81 						"/>
					</g>
					<g>
						<polygon class="st26" points="181.32,166.64 186.75,171.87 179.76,174.05 174.34,168.81 						"/>
					</g>
				</g>
				<g class="st23">
					<g>
						<polygon class="st24" points="177.33,174.8 176.83,176.67 169.85,178.84 170.35,176.98 						"/>
					</g>
					<g>
						<polygon class="st25" points="170.35,176.98 169.85,178.84 164.43,173.61 164.92,171.74 						"/>
					</g>
					<g>
						<polygon class="st26" points="171.9,169.57 177.33,174.8 170.35,176.98 164.92,171.74 						"/>
					</g>
				</g>
				<g class="st23">
					<g>
						<polygon class="st24" points="167.92,177.73 167.42,179.6 160.43,181.77 160.93,179.91 						"/>
					</g>
					<g>
						<polygon class="st25" points="160.93,179.91 160.43,181.77 155.01,176.54 155.51,174.67 						"/>
					</g>
					<g>
						<polygon class="st26" points="162.49,172.5 167.92,177.73 160.93,179.91 155.51,174.67 						"/>
					</g>
				</g>
				<g class="st23">
					<g>
						<polygon class="st24" points="193.82,178.7 193.32,180.57 186.34,182.74 186.84,180.87 						"/>
					</g>
					<g>
						<polygon class="st25" points="186.84,180.87 186.34,182.74 180.91,177.5 181.41,175.64 						"/>
					</g>
					<g>
						<polygon class="st26" points="188.39,173.46 193.82,178.7 186.84,180.87 181.41,175.64 						"/>
					</g>
				</g>
				<g class="st23">
					<g>
						<polygon class="st24" points="184.4,181.63 183.9,183.5 167.51,188.6 168.01,186.73 						"/>
					</g>
					<g>
						<polygon class="st25" points="168.01,186.73 167.51,188.6 162.08,183.36 162.58,181.5 						"/>
					</g>
					<g>
						<polygon class="st26" points="178.98,176.39 184.4,181.63 168.01,186.73 162.58,181.5 						"/>
					</g>
				</g>
			</g>
		</g>
		<g>
			<polygon class="st27" points="330.16,179.33 363.02,199.48 363.49,181.74 330.43,168.83 			"/>
			<path class="st28" d="M330.76,178.86l31.34,19.24c0,0,3.01-2.31,6.78-3.68l-31.6-19.5c0,0-6.72,0.52-6.82,3.85L330.76,178.86z"/>
			<path class="st29" d="M337.3,175.46"/>
			<path class="st30" d="M363.02,199.48l-32.37-19.87c0.44-3.16,6.53-3.54,6.53-3.54l32.38,19.86l0.59-0.32l-32.83-20.92
				c0,0-7.7,0.44-7.82,4.99l32.85,20.15L363.02,199.48z"/>
			<polygon class="st27" points="338.75,120.61 337.3,175.46 370.15,195.61 371.6,140.77 			"/>
			<path class="st31" d="M329.5,179.69c0.62-3.88,7.8-4.23,7.8-4.23l1.45-54.84c0,0-7.18,0.35-7.8,4.23L329.5,179.69z"/>
			<path class="st32" d="M331.19,167.83c1.01-1.78,4.73-2.57,4.73-2.57l0.88-33.28c0,0-3.56,0.6-4.73,2.57L331.19,167.83z"/>
		</g>
		<g>
			<polygon class="st26" points="261.08,258.08 293.07,246.01 280.89,236.04 253.87,252.18 			"/>
			<polygon class="st33" points="292.4,239.94 275.49,222.41 259.74,248.29 260.81,252.26 283.56,245.67 			"/>
			<path class="st34" d="M261.08,257.4l30.53-11.5c0,0-0.31-2.57,0.79-5.96l-30.52,10.75c0,0-3.29,4.99-1.01,6.87L261.08,257.4z"/>
			<path class="st29" d="M262.25,250.97"/>
			<path class="st35" d="M263.01,249.6c0,0,23.11-9.9,26.52-15.92l-7.44-9.88l-19.26,21.9L263.01,249.6z"/>
			<path class="st36" d="M263.01,249.6c0,0,23.23-15.38,25.03-22.06l-13-7.69l-13.18,26.02L263.01,249.6z"/>
			<path class="st25" d="M260.97,258.73c-2.38-2.54,1.28-7.76,1.28-7.76l-37.64-30.84c0,0-3.66,5.22-1.28,7.77L260.97,258.73z"/>
			<path class="st24" d="M253.58,251.11c-0.7-1.68,0.78-4.71,0.78-4.71l-22.84-18.71c0,0-1.52,2.82-0.78,4.71L253.58,251.11z"/>
			<polygon class="st26" points="224.61,220.13 262.25,250.97 285.93,222.19 248.29,191.35 			"/>
			<path class="st37" d="M293.07,246.01l-31.53,11.87c-1.97-2.02,1.07-6.5,1.07-6.5l23.84-28.47l-0.51-0.72l-24.21,28.35
				c0,0-3.88,5.63-0.75,8.19l31.99-12.06L293.07,246.01z"/>
		</g>
		<g>
			<g>
				<path class="st38" d="M258.87,196.07c11.89,1.38,22.24-3.65,23.13-11.25l3.33-25.16l-43.08-4.75l-3.3,24.91
					C238.06,187.41,246.98,194.69,258.87,196.07z"/>
				<path class="st39" d="M259.34,192.5c11.89,1.38,22.24-3.65,23.13-11.25l2.64-19.99l-43.08-4.75l-2.61,19.73
					C238.53,183.84,247.45,191.12,259.34,192.5z"/>
				
					<ellipse transform="matrix(0.1156 -0.9933 0.9933 0.1156 75.1247 402.4165)" class="st40" cx="263.55" cy="159.02" rx="13.85" ry="21.67"/>
			</g>
			<polygon class="st41" points="266.78,134.7 225.55,151.73 260.92,178.92 302.15,161.89 			"/>
			<g>
				<path class="st42" d="M290.72,176.69c-0.29-0.04-0.5-0.3-0.46-0.6c0.04-0.29,0.09-0.62,0.14-0.97c0.45-3.04,1.21-8.12-1.63-9.38
					c-0.27-0.12-0.39-0.43-0.27-0.7c0.12-0.27,0.44-0.37,0.7-0.27c3.57,1.59,2.74,7.17,2.25,10.51c-0.05,0.35-0.1,0.67-0.14,0.96
					C291.28,176.52,291.02,176.73,290.72,176.69z"/>
			</g>
			<path class="st42" d="M290.76,180.74l0.45-2.66c0.05-0.28-0.13-0.55-0.41-0.61c-0.07-0.01-0.12,0.02-0.18,0.03
				c-0.01,0-0.01-0.01-0.02-0.01c-0.06-0.01-0.12,0.03-0.18,0.04c-0.01,0-0.02,0-0.03,0.01c-0.2,0.05-0.37,0.18-0.4,0.39l-0.37,2.35
				l-5.26,23.48c0,0.02-0.01,0.04-0.01,0.07c-0.11,0.68,0.34,1.32,1.02,1.43c0.13,0.02,0.22-0.06,0.34-0.08l-0.29,1.82
				c0,0.02-0.01,0.04-0.01,0.06c-0.07,0.68,0.42,1.29,1.1,1.37c0.68,0.07,1.29-0.42,1.37-1.1L290.76,180.74z"/>
			<path class="st42" d="M290.4,178.88L290.4,178.88c-0.79-0.11-1.35-0.83-1.25-1.63l0.12-0.89c0.11-0.79,0.83-1.35,1.63-1.25l0,0
				c0.79,0.11,1.35,0.83,1.25,1.63l-0.12,0.89C291.93,178.43,291.2,178.99,290.4,178.88z"/>
		</g>
		<g>
			<g>
				<g class="st23">
					<g class="st23">
						<defs>
							<path id="SVGID_14_" class="st23" d="M190.2,131.67l-0.64-1.36c0.23,0.49,0.43,0.97,0.6,1.42c0.02,0.06,0.05,0.12,0.08,0.19
								l0.64,1.36c-0.03-0.06-0.06-0.12-0.08-0.19C190.63,132.64,190.43,132.16,190.2,131.67z"/>
						</defs>
						<clipPath id="SVGID_15_">
							<use xlink:href="#SVGID_14_"  style="overflow:visible;"/>
						</clipPath>
						<g class="st43">
							<path class="st44" d="M190.2,131.67l-0.64-1.36c0.23,0.49,0.43,0.97,0.6,1.42c0.02,0.06,0.05,0.12,0.08,0.19l0.64,1.36
								c-0.03-0.06-0.06-0.12-0.08-0.19C190.63,132.64,190.43,132.16,190.2,131.67"/>
						</g>
					</g>
					<g>
						<polygon class="st45" points="158.69,110.32 158.04,108.96 155.89,111.25 156.54,112.61 						"/>
					</g>
					<path class="st46" d="M187.83,122.46c0.28,0.14,0.55,0.28,0.82,0.42c0.02,0.01,0.03,0.02,0.05,0.03
						c0.25,0.14,0.49,0.28,0.73,0.43c0.03,0.02,0.07,0.04,0.1,0.06c0.23,0.15,0.46,0.29,0.68,0.45c0.06,0.04,0.12,0.08,0.18,0.13
						c0.18,0.13,0.35,0.25,0.52,0.38c0.05,0.04,0.11,0.08,0.16,0.12c0.22,0.17,0.43,0.35,0.64,0.52c0.1,0.09,0.19,0.18,0.29,0.26
						c0.12,0.11,0.24,0.21,0.35,0.32c0.23,0.22,0.45,0.44,0.66,0.66c0.05,0.05,0.09,0.1,0.14,0.15c0.22,0.24,0.43,0.48,0.63,0.72
						c0.04,0.05,0.09,0.11,0.13,0.16c0.37,0.46,0.71,0.93,1.02,1.4c0.01,0.02,0.02,0.03,0.03,0.05c0.26,0.39,0.49,0.78,0.71,1.17
						c0,0.01,0.01,0.02,0.01,0.03c0.22,0.39,0.42,0.78,0.59,1.15l-0.64-1.36c-0.18-0.38-0.38-0.76-0.59-1.15
						c0-0.01-0.01-0.02-0.01-0.02c-0.22-0.39-0.45-0.78-0.71-1.17c-0.01-0.01-0.01-0.02-0.02-0.04c0,0-0.01-0.01-0.01-0.01
						c-0.31-0.47-0.65-0.93-1.02-1.4c-0.01-0.02-0.02-0.03-0.04-0.05c-0.03-0.04-0.06-0.07-0.09-0.11c-0.2-0.24-0.41-0.48-0.63-0.72
						c-0.03-0.04-0.06-0.07-0.09-0.11c-0.01-0.02-0.03-0.03-0.05-0.05c-0.21-0.22-0.43-0.45-0.66-0.67c0,0,0,0,0,0
						c-0.1-0.09-0.2-0.18-0.3-0.27c-0.11-0.1-0.22-0.2-0.33-0.3c0,0,0,0,0,0c-0.18-0.16-0.37-0.32-0.57-0.47
						c-0.02-0.02-0.04-0.03-0.07-0.05c-0.05-0.04-0.11-0.08-0.16-0.13c-0.1-0.08-0.2-0.16-0.31-0.23c-0.07-0.05-0.14-0.1-0.21-0.15
						c-0.06-0.04-0.12-0.09-0.18-0.13c-0.05-0.03-0.09-0.07-0.14-0.1c-0.16-0.11-0.32-0.21-0.48-0.32
						c-0.02-0.01-0.04-0.02-0.05-0.03c-0.03-0.02-0.07-0.04-0.1-0.06c-0.11-0.07-0.22-0.14-0.34-0.21
						c-0.13-0.08-0.26-0.15-0.39-0.22c-0.02-0.01-0.03-0.02-0.05-0.03c-0.01,0-0.02-0.01-0.03-0.01c-0.16-0.09-0.31-0.17-0.47-0.25
						c-0.11-0.05-0.21-0.11-0.32-0.16c-0.03-0.01-0.06-0.03-0.09-0.04c-0.02-0.01-0.04-0.02-0.06-0.03
						c-0.16-0.07-0.31-0.15-0.47-0.22c-0.12-0.05-0.25-0.11-0.38-0.16l-28.14-11.68l0.64,1.36L186.82,122
						c0.31,0.13,0.62,0.27,0.91,0.41C187.77,122.43,187.8,122.44,187.83,122.46z"/>
					<g>
						<path class="st47" d="M158.69,110.32l-2.15,2.28l27.33,12.54c3.8,1.58,5.91,5.22,6.93,7.95c0.33,0.88,1.24,1.65,2.43,2.15
							c0.8,0.33,1.74,0.54,2.7,0.57l0.43,0.02c0.81,0.03,1.39-0.37,1.27-0.87c-0.62-2.63-2.95-9.7-10.81-12.96L158.69,110.32z"/>
					</g>
				</g>
			</g>
			<g>
				<g class="st23">
					<g class="st23">
						<defs>
							<path id="SVGID_16_" class="st23" d="M182.91,75.86l-0.64-1.36c0.23,0.49,0.43,0.97,0.6,1.42c0.02,0.06,0.05,0.12,0.08,0.19
								l0.64,1.36c-0.03-0.06-0.06-0.12-0.08-0.19C183.34,76.83,183.14,76.35,182.91,75.86z"/>
						</defs>
						<clipPath id="SVGID_17_">
							<use xlink:href="#SVGID_16_"  style="overflow:visible;"/>
						</clipPath>
						<g class="st48">
							<path class="st44" d="M182.91,75.86l-0.64-1.36c0.23,0.49,0.43,0.97,0.6,1.42c0.02,0.06,0.05,0.12,0.08,0.19l0.64,1.36
								c-0.03-0.06-0.06-0.12-0.08-0.19C183.34,76.83,183.14,76.35,182.91,75.86"/>
						</g>
					</g>
					<g>
						<polygon class="st45" points="151.4,54.51 150.76,53.15 148.61,55.44 149.25,56.8 						"/>
					</g>
					<path class="st46" d="M180.54,66.65c0.28,0.14,0.55,0.28,0.82,0.42c0.02,0.01,0.03,0.02,0.05,0.03
						c0.25,0.14,0.49,0.28,0.73,0.43c0.03,0.02,0.07,0.04,0.1,0.06c0.23,0.14,0.46,0.29,0.67,0.45c0.06,0.04,0.12,0.08,0.18,0.13
						c0.18,0.13,0.35,0.25,0.52,0.38c0.05,0.04,0.11,0.08,0.16,0.12c0.22,0.17,0.43,0.35,0.64,0.52c0.1,0.09,0.19,0.18,0.29,0.27
						c0.12,0.11,0.24,0.21,0.35,0.32c0.23,0.22,0.45,0.44,0.66,0.66c0.05,0.05,0.09,0.1,0.14,0.16c0.22,0.24,0.43,0.48,0.63,0.72
						c0.04,0.05,0.09,0.11,0.13,0.16c0.37,0.46,0.71,0.93,1.02,1.4c0.01,0.02,0.02,0.03,0.03,0.05c0.26,0.39,0.5,0.78,0.71,1.17
						c0,0.01,0.01,0.02,0.01,0.03c0.22,0.39,0.42,0.78,0.59,1.15l-0.64-1.36c-0.18-0.38-0.38-0.76-0.59-1.15
						c0-0.01-0.01-0.02-0.01-0.03c-0.22-0.38-0.45-0.78-0.71-1.17c-0.01-0.01-0.01-0.02-0.02-0.04c0,0-0.01-0.01-0.01-0.01
						c-0.31-0.47-0.65-0.93-1.02-1.4c-0.01-0.02-0.02-0.03-0.04-0.05c-0.03-0.04-0.06-0.07-0.09-0.11c-0.2-0.24-0.41-0.48-0.63-0.72
						c-0.03-0.04-0.06-0.07-0.09-0.11c-0.01-0.02-0.03-0.03-0.05-0.05c-0.21-0.22-0.43-0.45-0.66-0.67c0,0,0,0,0,0
						c-0.1-0.09-0.2-0.18-0.3-0.28c-0.11-0.1-0.22-0.2-0.33-0.3c0,0,0,0,0,0c-0.18-0.16-0.37-0.32-0.57-0.47
						c-0.02-0.02-0.04-0.03-0.07-0.05c-0.05-0.04-0.11-0.08-0.16-0.12c-0.1-0.08-0.2-0.16-0.31-0.24c-0.07-0.05-0.14-0.1-0.21-0.15
						c-0.06-0.04-0.12-0.09-0.18-0.13c-0.05-0.03-0.09-0.07-0.14-0.1c-0.16-0.11-0.32-0.21-0.48-0.32
						c-0.02-0.01-0.04-0.02-0.06-0.03c-0.03-0.02-0.07-0.04-0.1-0.06c-0.11-0.07-0.22-0.14-0.34-0.21
						c-0.13-0.08-0.26-0.15-0.39-0.22c-0.02-0.01-0.03-0.02-0.05-0.03c-0.01,0-0.02-0.01-0.02-0.01c-0.16-0.09-0.31-0.17-0.47-0.25
						c-0.1-0.05-0.21-0.1-0.32-0.16c-0.03-0.01-0.06-0.03-0.09-0.04c-0.02-0.01-0.04-0.02-0.06-0.03c-0.16-0.07-0.31-0.15-0.47-0.22
						c-0.12-0.05-0.25-0.11-0.38-0.16l-28.14-11.68l0.64,1.36l28.14,11.68c0.31,0.13,0.62,0.27,0.91,0.41
						C180.48,66.62,180.51,66.63,180.54,66.65z"/>
					<g>
						<path class="st47" d="M151.4,54.51l-2.15,2.28l27.33,12.53c3.8,1.58,5.91,5.22,6.93,7.95c0.33,0.88,1.24,1.65,2.43,2.15
							c0.8,0.33,1.74,0.54,2.7,0.57l0.43,0.02c0.81,0.03,1.39-0.37,1.27-0.87c-0.62-2.63-2.95-9.7-10.81-12.96L151.4,54.51z"/>
					</g>
				</g>
			</g>
			<g>
				<g class="st23">
					<path class="st49" d="M145.7,84.15c-0.14-0.06-0.27-0.13-0.4-0.21c-0.09-0.06-0.19-0.13-0.27-0.2
						c-0.01-0.01-0.03-0.02-0.04-0.03c-0.1-0.09-0.19-0.18-0.28-0.28c-0.02-0.02-0.03-0.04-0.05-0.06c-0.08-0.1-0.16-0.21-0.23-0.32
						c-0.01-0.01-0.02-0.03-0.03-0.04c-0.07-0.12-0.14-0.25-0.21-0.39c-0.01-0.01-0.01-0.03-0.02-0.04
						c-0.06-0.14-0.12-0.29-0.18-0.45c0-0.01-0.01-0.02-0.01-0.03c-0.05-0.16-0.1-0.34-0.14-0.52c0-0.01-0.01-0.03-0.01-0.04
						c-0.04-0.18-0.07-0.38-0.1-0.58l-1.35-10.64c-0.03-0.21-0.04-0.42-0.05-0.63c0-0.01,0-0.02,0-0.04c-0.01-0.2-0.01-0.4,0-0.61
						c0-0.02,0-0.04,0-0.07c0.01-0.2,0.02-0.4,0.04-0.6c0-0.02,0-0.05,0.01-0.07c0.02-0.21,0.05-0.41,0.08-0.62
						c0-0.02,0.01-0.04,0.01-0.05c0.04-0.22,0.08-0.45,0.13-0.67c0,0,0,0,0-0.01c0.05-0.23,0.11-0.46,0.18-0.68c0,0,0,0,0,0l0,0
						c0.06-0.21,0.13-0.41,0.2-0.62c0.05-0.15,0.11-0.29,0.16-0.44c0.03-0.09,0.07-0.18,0.1-0.27c0.02-0.04,0.04-0.08,0.05-0.12
						c0.08-0.18,0.15-0.35,0.24-0.53c0.01-0.02,0.02-0.04,0.03-0.06c0.1-0.2,0.2-0.41,0.32-0.6c0.01-0.01,0.01-0.02,0.02-0.03
						c0.11-0.19,0.22-0.38,0.34-0.57c0.01-0.01,0.02-0.03,0.03-0.04c0.12-0.19,0.25-0.37,0.38-0.55c0.01-0.01,0.01-0.02,0.02-0.03
						c0.13-0.17,0.26-0.34,0.39-0.5c0.01-0.02,0.03-0.03,0.04-0.05c0.14-0.16,0.28-0.32,0.42-0.48c0,0,0.01-0.01,0.01-0.01
						c0.15-0.15,0.3-0.3,0.45-0.44c0.01-0.01,0.03-0.02,0.04-0.04c0.16-0.14,0.31-0.27,0.48-0.39l4.71-3.55
						c0.22-0.17,0.44-0.3,0.66-0.41c0.01,0,0.01-0.01,0.02-0.01c0.21-0.1,0.42-0.18,0.63-0.22c0,0,0.01,0,0.01,0
						c0.17-0.04,0.33-0.04,0.49-0.04c0.05,0,0.11,0,0.16,0c0.17,0.02,0.34,0.05,0.49,0.12l0,0l0,0l-1.5-0.62
						c-0.15-0.06-0.32-0.1-0.49-0.12c-0.05-0.01-0.1,0-0.16,0c-0.07,0-0.14-0.01-0.21-0.01c-0.09,0.01-0.18,0.02-0.28,0.04
						c0,0-0.01,0-0.01,0c0,0-0.01,0-0.01,0c-0.06,0.01-0.13,0.03-0.19,0.05c-0.06,0.02-0.12,0.04-0.19,0.06
						c-0.06,0.02-0.12,0.05-0.17,0.07c-0.02,0.01-0.05,0.02-0.07,0.03c-0.01,0-0.01,0.01-0.02,0.01c-0.02,0.01-0.05,0.02-0.07,0.03
						c-0.05,0.03-0.1,0.05-0.15,0.08c-0.05,0.03-0.1,0.06-0.15,0.09c-0.05,0.03-0.09,0.06-0.14,0.09c-0.05,0.03-0.09,0.07-0.14,0.1
						c0,0-0.01,0-0.01,0.01L145,59.87c-0.06,0.05-0.13,0.1-0.19,0.15c-0.07,0.05-0.13,0.11-0.2,0.17c-0.03,0.03-0.06,0.05-0.09,0.08
						c-0.01,0.01-0.03,0.02-0.04,0.03c-0.02,0.02-0.04,0.04-0.07,0.06c-0.06,0.06-0.13,0.12-0.19,0.18
						c-0.06,0.06-0.13,0.13-0.19,0.19c0,0-0.01,0.01-0.01,0.01c0,0-0.01,0.01-0.01,0.01c-0.06,0.06-0.11,0.12-0.17,0.18
						c-0.06,0.07-0.13,0.14-0.19,0.21c-0.02,0.03-0.05,0.06-0.07,0.08c-0.01,0.02-0.03,0.03-0.04,0.05
						c-0.03,0.03-0.05,0.06-0.08,0.09c-0.06,0.08-0.12,0.15-0.18,0.23c-0.05,0.06-0.09,0.12-0.13,0.18
						c-0.01,0.01-0.01,0.02-0.02,0.03c-0.01,0.01-0.01,0.02-0.02,0.03c-0.06,0.08-0.11,0.16-0.17,0.24
						c-0.05,0.08-0.11,0.16-0.16,0.24c-0.01,0.02-0.02,0.03-0.03,0.05c-0.01,0.01-0.02,0.03-0.02,0.04
						c-0.03,0.05-0.06,0.1-0.09,0.15c-0.05,0.08-0.1,0.16-0.14,0.24c-0.04,0.06-0.07,0.12-0.11,0.19c0,0.01-0.01,0.02-0.01,0.03
						c-0.01,0.01-0.01,0.02-0.02,0.03c-0.05,0.08-0.09,0.17-0.13,0.25c-0.05,0.09-0.1,0.19-0.14,0.28
						c-0.01,0.02-0.02,0.03-0.02,0.05c-0.01,0.02-0.02,0.04-0.03,0.06c-0.03,0.07-0.07,0.14-0.1,0.22c-0.05,0.1-0.09,0.21-0.14,0.31
						c-0.02,0.04-0.04,0.08-0.05,0.12c-0.01,0.01-0.01,0.03-0.02,0.04c-0.03,0.08-0.06,0.15-0.09,0.23
						c-0.06,0.14-0.11,0.29-0.16,0.44c-0.01,0.02-0.02,0.04-0.02,0.06c-0.06,0.19-0.12,0.37-0.18,0.56c0,0,0,0,0,0
						c-0.04,0.12-0.07,0.25-0.1,0.38c-0.03,0.1-0.05,0.21-0.08,0.31c0,0,0,0,0,0.01c0,0,0,0,0,0c-0.02,0.1-0.05,0.21-0.07,0.31
						c-0.02,0.1-0.04,0.2-0.06,0.3c0,0.02-0.01,0.03-0.01,0.05c0,0.02-0.01,0.04-0.01,0.05c-0.01,0.07-0.02,0.14-0.03,0.21
						c-0.02,0.11-0.03,0.21-0.04,0.31c0,0.03-0.01,0.06-0.01,0.1c0,0.02,0,0.05-0.01,0.07c-0.01,0.05-0.01,0.1-0.02,0.15
						c-0.01,0.11-0.02,0.21-0.02,0.31c0,0.05,0,0.09,0,0.14c0,0.02,0,0.05,0,0.07c0,0.03,0,0.07,0,0.1c0,0.1,0,0.2,0,0.29
						c0,0.07,0,0.14,0.01,0.21c0,0.01,0,0.03,0,0.04c0,0.01,0,0.02,0,0.04c0,0.09,0.01,0.18,0.02,0.27
						c0.01,0.09,0.02,0.18,0.03,0.26c0,0.02,0,0.04,0.01,0.06l1.35,10.64c0.01,0.06,0.02,0.13,0.03,0.19
						c0.01,0.08,0.03,0.16,0.04,0.24c0.01,0.05,0.02,0.1,0.03,0.15c0,0.01,0.01,0.02,0.01,0.04c0,0.02,0.01,0.03,0.01,0.05
						c0.02,0.08,0.04,0.15,0.06,0.22c0.02,0.07,0.04,0.15,0.07,0.22c0,0.01,0.01,0.02,0.01,0.03c0,0.01,0.01,0.02,0.01,0.03
						c0.02,0.05,0.03,0.1,0.05,0.15c0.03,0.07,0.05,0.14,0.08,0.21c0.01,0.03,0.03,0.06,0.04,0.09c0.01,0.01,0.01,0.03,0.02,0.04
						c0.01,0.02,0.02,0.05,0.03,0.07c0.03,0.07,0.07,0.14,0.11,0.2c0.02,0.04,0.05,0.08,0.07,0.11c0.01,0.01,0.02,0.03,0.03,0.04
						c0.01,0.01,0.02,0.03,0.03,0.05c0.05,0.07,0.09,0.14,0.14,0.2c0.02,0.03,0.04,0.05,0.07,0.08c0.02,0.02,0.03,0.04,0.05,0.06
						c0.02,0.02,0.04,0.05,0.06,0.07c0.07,0.08,0.14,0.15,0.22,0.21c0,0,0,0,0,0c0.01,0.01,0.03,0.02,0.04,0.03
						c0.08,0.07,0.16,0.13,0.25,0.19c0.01,0.01,0.02,0.01,0.02,0.01c0.13,0.08,0.26,0.15,0.4,0.21L145.7,84.15z"/>
					<path class="st49" d="M150.82,83.28l-3.01,2.08c-0.21,0.15-0.42,0.28-0.63,0.4c-0.02,0.01-0.04,0.02-0.06,0.03
						c-0.2,0.11-0.39,0.21-0.59,0.29c-0.02,0.01-0.04,0.02-0.06,0.03c-0.18,0.08-0.35,0.14-0.53,0.2c-0.03,0.01-0.06,0.02-0.08,0.03
						c-0.18,0.06-0.36,0.1-0.54,0.14c-0.08,0.02-0.16,0.02-0.24,0.04c-0.11,0.01-0.21,0.03-0.31,0.04
						c-0.27,0.02-0.54,0.01-0.79-0.02c-0.05-0.01-0.11-0.02-0.16-0.03c-0.26-0.05-0.51-0.11-0.75-0.21l1.5,0.62
						c0.24,0.1,0.49,0.16,0.75,0.21c0.05,0.01,0.11,0.02,0.16,0.03c0.26,0.03,0.52,0.04,0.79,0.02c0.02,0,0.03,0,0.05,0
						c0.09-0.01,0.18-0.03,0.27-0.04c0.08-0.01,0.16-0.02,0.24-0.04c0.02,0,0.03,0,0.05-0.01c0.15-0.03,0.3-0.07,0.45-0.12
						c0.01,0,0.03-0.01,0.04-0.01c0.03-0.01,0.05-0.02,0.08-0.03c0.09-0.03,0.19-0.06,0.28-0.1c0.08-0.03,0.17-0.07,0.25-0.1
						c0.02-0.01,0.04-0.02,0.06-0.03c0.01-0.01,0.03-0.01,0.04-0.02c0.11-0.05,0.22-0.1,0.33-0.16c0.07-0.04,0.14-0.08,0.21-0.12
						c0.02-0.01,0.04-0.02,0.06-0.03c0.02-0.01,0.03-0.02,0.05-0.03c0.1-0.06,0.2-0.12,0.3-0.18c0.09-0.06,0.19-0.12,0.28-0.19
						l3.01-2.09L150.82,83.28z"/>
					<path class="st46" d="M157.11,78.34c0.06-0.13,0.12-0.26,0.18-0.39c0.04-0.08,0.08-0.16,0.11-0.25c0.04-0.1,0.09-0.2,0.13-0.31
						c0.04-0.09,0.06-0.18,0.1-0.27c0.08-0.2,0.15-0.4,0.22-0.59c0.02-0.06,0.05-0.13,0.07-0.19c0.04-0.13,0.08-0.25,0.12-0.38
						c0.02-0.07,0.04-0.13,0.06-0.2c0.01-0.03,0.02-0.06,0.03-0.09c0.04-0.15,0.09-0.31,0.13-0.46c0.02-0.09,0.05-0.19,0.07-0.28
						c0.01-0.02,0.01-0.04,0.02-0.07c0-0.02,0.01-0.04,0.02-0.06c0.03-0.13,0.06-0.26,0.09-0.39c0.03-0.13,0.05-0.26,0.07-0.39
						c0-0.01,0-0.03,0.01-0.04c0-0.02,0-0.03,0.01-0.05c0.02-0.11,0.04-0.21,0.05-0.32c0.02-0.14,0.04-0.27,0.05-0.41
						c0-0.04,0.01-0.08,0.01-0.12c0-0.03,0.01-0.06,0.01-0.09c0.01-0.07,0.01-0.14,0.02-0.2c0.01-0.14,0.02-0.27,0.03-0.41
						c0-0.06,0-0.12,0.01-0.18c0-0.03,0-0.06,0-0.09c0-0.04,0-0.09,0-0.13c0-0.13,0-0.26,0-0.39c0-0.1-0.01-0.19-0.01-0.28
						c0-0.02,0-0.03,0-0.05c0-0.01,0-0.03,0-0.04c-0.01-0.12-0.01-0.24-0.02-0.36c-0.01-0.12-0.02-0.23-0.03-0.35
						c0-0.03-0.01-0.05-0.01-0.08l-1.7-13.37c-0.01-0.07-0.02-0.14-0.03-0.2c-0.01-0.09-0.03-0.17-0.04-0.26
						c-0.01-0.06-0.02-0.11-0.03-0.16c0-0.01-0.01-0.03-0.01-0.04c0-0.02-0.01-0.03-0.01-0.05c-0.02-0.08-0.04-0.16-0.06-0.24
						c-0.02-0.08-0.05-0.16-0.07-0.23c0-0.01-0.01-0.03-0.01-0.04c0-0.01-0.01-0.02-0.01-0.04c-0.02-0.05-0.03-0.1-0.05-0.15
						c-0.03-0.08-0.06-0.15-0.09-0.23c-0.02-0.04-0.03-0.07-0.05-0.11c-0.01-0.01-0.01-0.03-0.02-0.04
						c-0.01-0.02-0.02-0.04-0.03-0.06c-0.04-0.08-0.08-0.15-0.12-0.22c-0.03-0.05-0.05-0.09-0.08-0.13
						c-0.01-0.01-0.02-0.03-0.03-0.04c-0.01-0.01-0.02-0.03-0.03-0.04c-0.05-0.08-0.1-0.15-0.16-0.22
						c-0.02-0.03-0.05-0.06-0.08-0.09c-0.02-0.02-0.04-0.05-0.06-0.07c-0.02-0.02-0.04-0.05-0.06-0.07
						c-0.08-0.08-0.15-0.16-0.24-0.23c0,0,0,0-0.01,0c-0.02-0.02-0.04-0.03-0.06-0.05c-0.08-0.07-0.17-0.14-0.26-0.2
						c-0.01-0.01-0.02-0.01-0.02-0.01c-0.14-0.09-0.28-0.16-0.43-0.23l-1.5-0.62c0.15,0.06,0.29,0.14,0.43,0.23
						c0.1,0.06,0.19,0.13,0.28,0.21c0.02,0.02,0.04,0.03,0.06,0.05c0.11,0.09,0.2,0.2,0.3,0.31c0.02,0.02,0.04,0.05,0.06,0.07
						c0.09,0.11,0.18,0.22,0.26,0.35c0.01,0.01,0.02,0.03,0.03,0.04c0.08,0.13,0.16,0.27,0.23,0.42c0.01,0.02,0.01,0.03,0.02,0.05
						c0.07,0.15,0.13,0.31,0.19,0.48c0,0.01,0.01,0.02,0.01,0.04c0.06,0.18,0.11,0.36,0.15,0.56c0,0.01,0.01,0.03,0.01,0.04
						c0.04,0.2,0.08,0.41,0.11,0.62l1.7,13.37c0.03,0.27,0.06,0.54,0.07,0.82c0,0.02,0,0.03,0,0.05c0.01,0.26,0.01,0.53,0,0.8
						c0,0.03,0,0.06,0,0.09c-0.01,0.26-0.03,0.53-0.05,0.8c0,0.03-0.01,0.06-0.01,0.09c-0.03,0.28-0.07,0.56-0.12,0.84
						c0,0.02,0,0.03-0.01,0.05c-0.05,0.29-0.11,0.59-0.18,0.89c-0.01,0.02-0.01,0.04-0.02,0.07c-0.07,0.28-0.14,0.55-0.22,0.83
						c-0.02,0.07-0.04,0.13-0.06,0.2c-0.06,0.19-0.12,0.38-0.19,0.56c-0.07,0.2-0.15,0.4-0.22,0.6c-0.08,0.19-0.15,0.38-0.23,0.57
						c-0.09,0.21-0.2,0.43-0.3,0.64l0,0l0,0L157.11,78.34z"/>
					<g>
						<polygon class="st50" points="155.61,77.72 157.11,78.34 157.88,84.46 156.38,83.84 						"/>
					</g>
					<path class="st49" d="M149.6,114.64c-0.14-0.06-0.27-0.13-0.4-0.21c-0.09-0.06-0.18-0.13-0.27-0.2
						c-0.02-0.02-0.04-0.03-0.06-0.04c-0.1-0.09-0.19-0.18-0.28-0.29c-0.02-0.02-0.04-0.04-0.05-0.06c-0.08-0.1-0.16-0.21-0.24-0.33
						c-0.01-0.01-0.02-0.03-0.03-0.04c-0.08-0.12-0.15-0.25-0.21-0.39c-0.01-0.01-0.01-0.03-0.02-0.04
						c-0.07-0.14-0.13-0.29-0.18-0.45c0-0.01-0.01-0.02-0.01-0.03c-0.06-0.17-0.1-0.34-0.15-0.53c0-0.01-0.01-0.02-0.01-0.04
						c-0.04-0.19-0.08-0.38-0.1-0.59l-1.35-10.64c-0.05-0.4-0.07-0.81-0.06-1.24c0-0.01,0-0.02,0-0.03
						c0.01-0.42,0.05-0.84,0.12-1.27c0-0.01,0-0.02,0.01-0.04c0.07-0.42,0.16-0.85,0.28-1.28c0-0.01,0.01-0.03,0.01-0.04
						c0.12-0.41,0.26-0.81,0.41-1.21c0.01-0.03,0.02-0.07,0.04-0.1c0.17-0.41,0.36-0.82,0.57-1.21c0-0.01,0.01-0.02,0.01-0.02
						c0.21-0.39,0.44-0.78,0.69-1.14c0.01-0.01,0.01-0.02,0.02-0.02c0.25-0.36,0.52-0.71,0.81-1.02l0,0
						c0.29-0.32,0.6-0.62,0.92-0.88l3.62-2.97c0.15-0.12,0.29-0.23,0.44-0.33c0.01-0.01,0.02-0.02,0.04-0.02
						c0.14-0.09,0.27-0.17,0.41-0.25c0.02-0.01,0.03-0.02,0.05-0.03c0.13-0.07,0.26-0.13,0.39-0.19c0.02-0.01,0.04-0.02,0.06-0.02
						c0.13-0.05,0.26-0.09,0.38-0.13c0.03-0.01,0.06-0.02,0.09-0.02c0.1-0.02,0.19-0.04,0.28-0.06c0.05-0.01,0.1-0.02,0.15-0.02
						c0.05-0.01,0.11-0.01,0.16-0.01c0.13-0.01,0.26,0,0.38,0.01c0.05,0,0.1,0.01,0.14,0.02c0.16,0.03,0.32,0.06,0.48,0.12
						c0.02,0.01,0.05,0.02,0.07,0.03l0,0l0,0l-1.5-0.62c-0.02-0.01-0.05-0.02-0.07-0.03c-0.15-0.06-0.31-0.09-0.48-0.12
						c-0.05-0.01-0.1-0.01-0.14-0.02c-0.12-0.01-0.25-0.01-0.38-0.01c-0.03,0-0.06,0-0.09,0c-0.02,0-0.05,0.01-0.07,0.01
						c-0.05,0.01-0.1,0.01-0.15,0.02c-0.05,0.01-0.09,0.01-0.14,0.02c-0.05,0.01-0.09,0.02-0.14,0.04
						c-0.03,0.01-0.06,0.01-0.09,0.02c-0.02,0.01-0.04,0.01-0.06,0.02c-0.09,0.03-0.17,0.06-0.26,0.09
						c-0.02,0.01-0.04,0.02-0.07,0.03c-0.02,0.01-0.04,0.02-0.06,0.02c-0.04,0.02-0.07,0.03-0.11,0.05
						c-0.07,0.03-0.14,0.07-0.22,0.11c-0.02,0.01-0.05,0.03-0.07,0.04c-0.02,0.01-0.03,0.02-0.05,0.03
						c-0.03,0.02-0.06,0.03-0.09,0.05c-0.07,0.04-0.13,0.08-0.2,0.12c-0.04,0.03-0.08,0.05-0.12,0.08
						c-0.01,0.01-0.02,0.01-0.03,0.02c-0.01,0.01-0.03,0.02-0.04,0.03c-0.06,0.04-0.13,0.09-0.19,0.14
						c-0.06,0.05-0.13,0.1-0.19,0.15c-0.01,0.01-0.01,0.01-0.02,0.02l-3.62,2.97c-0.05,0.04-0.1,0.08-0.15,0.13
						c-0.07,0.06-0.13,0.11-0.19,0.17c-0.06,0.06-0.13,0.12-0.19,0.18c-0.06,0.06-0.13,0.13-0.19,0.19
						c-0.06,0.07-0.13,0.13-0.19,0.2c0,0,0,0,0,0l0,0c-0.06,0.07-0.12,0.14-0.18,0.21c-0.06,0.07-0.12,0.15-0.18,0.22
						s-0.12,0.15-0.18,0.23c-0.06,0.08-0.12,0.15-0.17,0.23c-0.03,0.05-0.06,0.09-0.1,0.14c-0.01,0.01-0.01,0.02-0.02,0.02
						c-0.02,0.02-0.03,0.05-0.05,0.07c-0.05,0.08-0.1,0.16-0.16,0.23c-0.05,0.08-0.1,0.16-0.15,0.23c-0.05,0.08-0.09,0.15-0.14,0.23
						c-0.05,0.08-0.09,0.16-0.14,0.24c-0.02,0.04-0.04,0.08-0.07,0.12c0,0.01-0.01,0.02-0.01,0.02c-0.02,0.03-0.04,0.07-0.05,0.1
						c-0.05,0.09-0.09,0.18-0.14,0.27c-0.05,0.1-0.1,0.2-0.14,0.3c-0.07,0.16-0.14,0.32-0.21,0.48c-0.01,0.02-0.01,0.03-0.02,0.05
						c-0.01,0.03-0.02,0.07-0.04,0.1c-0.08,0.19-0.15,0.38-0.22,0.58c-0.06,0.18-0.12,0.35-0.17,0.53c-0.01,0.03-0.02,0.07-0.03,0.1
						c0,0.01-0.01,0.03-0.01,0.04c-0.02,0.07-0.04,0.15-0.06,0.22c-0.03,0.1-0.05,0.21-0.08,0.31c-0.02,0.1-0.05,0.2-0.07,0.3
						c-0.02,0.1-0.04,0.2-0.06,0.3c-0.01,0.05-0.01,0.09-0.02,0.14c0,0.01,0,0.02-0.01,0.04c-0.01,0.04-0.01,0.09-0.02,0.13
						c-0.02,0.1-0.03,0.21-0.04,0.31c-0.01,0.1-0.02,0.21-0.03,0.31c-0.01,0.1-0.02,0.21-0.02,0.31c0,0.07,0,0.13-0.01,0.2
						c0,0.01,0,0.02,0,0.03c0,0.02,0,0.05,0,0.07c0,0.1,0,0.2,0,0.29c0,0.09,0,0.19,0.01,0.28c0,0.09,0.01,0.18,0.02,0.27
						c0.01,0.09,0.02,0.17,0.03,0.26c0,0.02,0,0.04,0.01,0.06l1.35,10.64c0.01,0.06,0.02,0.13,0.03,0.19
						c0.01,0.08,0.03,0.16,0.04,0.24c0.01,0.05,0.02,0.1,0.03,0.15c0,0.01,0,0.02,0.01,0.03c0,0.01,0.01,0.03,0.01,0.04
						c0.02,0.08,0.04,0.15,0.06,0.22c0.02,0.08,0.04,0.15,0.07,0.22c0,0.01,0.01,0.02,0.01,0.04c0,0.01,0.01,0.02,0.01,0.03
						c0.02,0.05,0.03,0.1,0.05,0.14c0.03,0.07,0.06,0.14,0.09,0.21c0.01,0.03,0.03,0.07,0.05,0.1c0.01,0.01,0.01,0.03,0.02,0.04
						c0.01,0.02,0.02,0.04,0.03,0.06c0.04,0.07,0.07,0.14,0.11,0.21c0.02,0.04,0.05,0.08,0.07,0.12c0.01,0.01,0.02,0.03,0.03,0.04
						c0.01,0.01,0.02,0.03,0.02,0.04c0.05,0.07,0.1,0.14,0.15,0.21c0.02,0.03,0.05,0.06,0.07,0.08c0.02,0.02,0.04,0.04,0.05,0.06
						c0.02,0.02,0.04,0.04,0.05,0.07c0.07,0.08,0.15,0.15,0.22,0.22c0,0,0,0,0,0c0.02,0.02,0.04,0.03,0.06,0.04
						c0.08,0.07,0.16,0.13,0.24,0.19c0.01,0,0.02,0.01,0.02,0.01c0.13,0.08,0.26,0.15,0.4,0.21L149.6,114.64z"/>
					<g>
						<path class="st51" d="M161.17,101.59c0.46,3.6-1.51,8.29-4.39,10.46l-4.71,3.55c-3.77,2.85-7.33,1.34-7.92-3.38l-1.35-10.64
							c-0.57-4.52,1.79-10.37,5.38-13.32l2.97-2.43l-0.33-2.57l-3.01,2.09c-3.64,2.52-6.95,0.95-7.52-3.57l-1.35-10.64
							c-0.6-4.71,1.98-10.86,5.76-13.71l4.71-3.55c2.88-2.18,5.59-1.01,6.05,2.58l1.7,13.37c0.28,2.19-0.16,4.77-1.24,7.24
							c-0.09,0.21-0.2,0.43-0.3,0.64l0.78,6.12c0.13,0.04,0.26,0.07,0.39,0.12c1.46,0.56,2.42,2.07,2.7,4.27L161.17,101.59z
							 M151.27,80.32c1.23-0.85,2.32-2.27,3.07-3.99c0.75-1.73,1.06-3.51,0.86-5.04l-1.7-13.37c-0.29-2.26-1.99-2.98-3.8-1.62
							L145,59.87c-2.7,2.04-4.54,6.44-4.12,9.82l1.35,10.64c0.41,3.23,2.76,4.34,5.36,2.55L151.27,80.32 M151.77,113.18l4.71-3.56
							c1.81-1.37,3.04-4.31,2.76-6.57l-1.7-13.37c-0.19-1.52-0.86-2.58-1.88-2.96c-1.01-0.38-2.24-0.05-3.45,0.94l-3.62,2.97
							c-2.56,2.1-4.24,6.26-3.83,9.49l1.35,10.64C146.53,114.13,149.07,115.22,151.77,113.18"/>
					</g>
					<path class="st46" d="M158.48,112.52c0.07-0.06,0.14-0.12,0.21-0.18c0.03-0.03,0.06-0.06,0.09-0.08
						c0.01-0.01,0.03-0.02,0.04-0.04c0.02-0.02,0.05-0.04,0.07-0.06c0.07-0.06,0.14-0.13,0.2-0.19c0.07-0.07,0.14-0.14,0.2-0.21
						c0,0,0,0,0.01-0.01c0,0,0.01-0.01,0.01-0.01c0.06-0.06,0.12-0.13,0.18-0.2c0.07-0.07,0.13-0.15,0.2-0.23
						c0.02-0.03,0.05-0.06,0.07-0.08c0.01-0.02,0.03-0.03,0.04-0.05c0.03-0.03,0.06-0.07,0.08-0.1c0.07-0.08,0.13-0.16,0.19-0.25
						c0.05-0.06,0.09-0.12,0.14-0.19c0.01-0.01,0.02-0.02,0.03-0.03c0.01-0.01,0.02-0.02,0.02-0.03c0.06-0.08,0.12-0.17,0.18-0.25
						c0.06-0.08,0.11-0.17,0.17-0.26c0.01-0.02,0.02-0.03,0.03-0.05c0.01-0.01,0.02-0.03,0.02-0.04c0.03-0.05,0.07-0.11,0.1-0.16
						c0.05-0.08,0.1-0.17,0.15-0.26c0.04-0.06,0.07-0.13,0.11-0.19c0.01-0.01,0.01-0.02,0.02-0.03c0.01-0.01,0.01-0.02,0.02-0.04
						c0.05-0.09,0.1-0.18,0.14-0.27c0.05-0.1,0.1-0.2,0.15-0.3c0.01-0.02,0.01-0.03,0.02-0.05c0.01-0.02,0.02-0.04,0.03-0.06
						c0.04-0.08,0.08-0.16,0.12-0.24c0.05-0.1,0.09-0.21,0.13-0.31c0.02-0.05,0.05-0.1,0.07-0.16c0.01-0.02,0.02-0.04,0.03-0.06
						c0.04-0.09,0.07-0.18,0.1-0.28c0.05-0.13,0.1-0.27,0.15-0.4c0.01-0.02,0.02-0.04,0.02-0.06c0.07-0.2,0.13-0.39,0.19-0.59
						c0,0,0-0.01,0-0.01l0,0c0.04-0.13,0.08-0.27,0.11-0.4c0.03-0.11,0.05-0.22,0.08-0.32c0,0,0-0.01,0-0.01c0,0,0,0,0-0.01
						c0.03-0.11,0.05-0.22,0.07-0.33c0.02-0.11,0.04-0.22,0.06-0.33c0-0.02,0.01-0.03,0.01-0.05c0-0.02,0.01-0.04,0.01-0.06
						c0.01-0.08,0.03-0.15,0.04-0.23c0.02-0.11,0.03-0.22,0.04-0.33c0-0.03,0.01-0.07,0.01-0.1c0-0.03,0.01-0.05,0.01-0.08
						c0.01-0.05,0.01-0.11,0.02-0.16c0.01-0.11,0.02-0.22,0.02-0.33c0-0.05,0-0.1,0.01-0.14c0-0.02,0-0.05,0-0.07
						c0-0.04,0-0.07,0-0.11c0-0.11,0-0.21,0-0.31c0-0.08,0-0.15-0.01-0.22c0-0.01,0-0.03,0-0.04c0-0.01,0-0.03,0-0.04
						c0-0.1-0.01-0.19-0.02-0.29c-0.01-0.09-0.02-0.19-0.03-0.28c0-0.02-0.01-0.04-0.01-0.06l-1.7-13.37
						c-0.01-0.09-0.02-0.17-0.04-0.26c-0.02-0.11-0.04-0.21-0.06-0.32c-0.01-0.06-0.02-0.11-0.04-0.16c0-0.02-0.01-0.04-0.01-0.06
						c-0.01-0.03-0.01-0.06-0.02-0.08c-0.02-0.1-0.05-0.2-0.07-0.3c-0.03-0.1-0.06-0.19-0.09-0.29c0,0,0-0.01-0.01-0.01
						c0-0.01,0-0.01-0.01-0.02c-0.03-0.08-0.06-0.17-0.09-0.25c-0.03-0.09-0.07-0.18-0.11-0.27c-0.01-0.03-0.03-0.06-0.04-0.08
						c-0.01-0.02-0.02-0.04-0.03-0.06c-0.02-0.04-0.04-0.09-0.06-0.13c-0.04-0.09-0.09-0.18-0.14-0.27
						c-0.02-0.04-0.05-0.08-0.07-0.12c-0.01-0.02-0.03-0.04-0.04-0.06c-0.02-0.03-0.03-0.06-0.05-0.08
						c-0.06-0.09-0.12-0.18-0.19-0.26c-0.02-0.03-0.05-0.06-0.07-0.08c-0.02-0.03-0.04-0.05-0.06-0.08
						c-0.03-0.04-0.06-0.07-0.09-0.11c-0.09-0.1-0.18-0.19-0.28-0.28c0,0,0,0,0,0l0,0c-0.13-0.11-0.26-0.21-0.39-0.3
						c-0.01-0.01-0.02-0.01-0.03-0.02c-0.17-0.11-0.35-0.21-0.54-0.29l-1.5-0.62c0.19,0.08,0.37,0.18,0.54,0.29
						c0.15,0.1,0.29,0.2,0.42,0.32c0,0,0,0,0,0c0.13,0.12,0.25,0.25,0.37,0.38c0.02,0.03,0.04,0.05,0.06,0.08
						c0.11,0.14,0.21,0.28,0.31,0.43c0.01,0.02,0.03,0.04,0.04,0.06c0.1,0.16,0.19,0.33,0.27,0.51c0.01,0.02,0.02,0.04,0.03,0.06
						c0.09,0.19,0.16,0.39,0.23,0.6c0,0.01,0,0.01,0.01,0.02c0.07,0.22,0.13,0.44,0.18,0.68c0,0.02,0.01,0.04,0.01,0.06
						c0.05,0.24,0.09,0.48,0.13,0.74l1.7,13.37c0.03,0.22,0.05,0.44,0.06,0.67c0,0.01,0,0.03,0,0.04c0.01,0.21,0.01,0.43,0,0.65
						c0,0.02,0,0.05,0,0.07c-0.01,0.21-0.02,0.43-0.04,0.64c0,0.03,0,0.05-0.01,0.08c-0.02,0.22-0.05,0.44-0.09,0.66
						c0,0.02-0.01,0.04-0.01,0.05c-0.04,0.24-0.09,0.48-0.14,0.71c0,0,0,0.01,0,0.01c-0.06,0.24-0.12,0.49-0.19,0.73
						c0,0,0,0.01,0,0.01c-0.06,0.22-0.14,0.43-0.21,0.65c-0.05,0.13-0.1,0.27-0.15,0.4c-0.04,0.11-0.09,0.23-0.13,0.34
						c-0.02,0.05-0.05,0.11-0.07,0.16c-0.08,0.18-0.16,0.37-0.25,0.55c-0.01,0.02-0.02,0.04-0.03,0.06
						c-0.11,0.22-0.22,0.44-0.34,0.65c-0.01,0.01-0.01,0.02-0.02,0.03c-0.12,0.21-0.24,0.41-0.36,0.61
						c-0.01,0.01-0.02,0.03-0.02,0.04c-0.13,0.2-0.26,0.4-0.4,0.59c-0.01,0.01-0.02,0.02-0.03,0.03c-0.13,0.18-0.27,0.36-0.41,0.53
						c-0.01,0.02-0.03,0.03-0.04,0.05c-0.15,0.18-0.3,0.35-0.45,0.51c0,0-0.01,0.01-0.01,0.01c-0.16,0.16-0.32,0.32-0.48,0.47
						c-0.01,0.01-0.03,0.02-0.04,0.04c-0.17,0.15-0.33,0.29-0.51,0.42l-4.71,3.55c-0.23,0.17-0.45,0.32-0.67,0.46
						c-0.02,0.01-0.04,0.02-0.06,0.04c-0.21,0.13-0.41,0.24-0.61,0.34c-0.03,0.01-0.05,0.03-0.08,0.04
						c-0.2,0.09-0.39,0.18-0.59,0.25c-0.04,0.01-0.07,0.03-0.11,0.04c-0.19,0.06-0.37,0.12-0.55,0.16c-0.02,0-0.04,0.01-0.06,0.01
						c-0.21,0.04-0.41,0.07-0.61,0.09c-0.28,0.02-0.56,0.01-0.82-0.02c-0.06-0.01-0.13-0.02-0.19-0.03
						c-0.26-0.05-0.52-0.11-0.76-0.21l0,0l0,0l1.5,0.62c0.24,0.1,0.5,0.16,0.76,0.21c0.06,0.01,0.13,0.02,0.19,0.03
						c0.27,0.03,0.54,0.05,0.82,0.02c0,0,0.01,0,0.01,0c0.19-0.02,0.38-0.04,0.58-0.08c0.01,0,0.01,0,0.02,0
						c0.02,0,0.04-0.01,0.06-0.01c0.12-0.03,0.25-0.06,0.37-0.1c0.06-0.02,0.12-0.04,0.18-0.06c0.04-0.01,0.07-0.02,0.11-0.04
						c0.03-0.01,0.07-0.02,0.1-0.03c0.12-0.05,0.24-0.1,0.36-0.15c0.04-0.02,0.08-0.04,0.13-0.06c0.03-0.01,0.05-0.03,0.08-0.04
						c0.04-0.02,0.08-0.04,0.13-0.06c0.1-0.05,0.21-0.11,0.32-0.17c0.06-0.03,0.12-0.07,0.17-0.11c0.02-0.01,0.04-0.02,0.06-0.04
						c0.02-0.02,0.05-0.03,0.07-0.04c0.1-0.06,0.19-0.13,0.29-0.19c0.1-0.07,0.19-0.14,0.29-0.21c0.01,0,0.01-0.01,0.02-0.01
						l4.71-3.56C158.35,112.63,158.41,112.57,158.48,112.52z"/>
				</g>
			</g>
		</g>
		<g>
			<g class="st23">
				<g>
					<polygon class="st52" points="150.59,230.64 152.87,228.68 158.29,230.59 156.02,232.55 					"/>
				</g>
				<path class="st53" d="M167.45,233.82c0.01-0.33,0.04-0.64,0.08-0.95c0.01-0.12,0.03-0.24,0.05-0.36c0.03-0.2,0.06-0.39,0.1-0.58
					c0.03-0.16,0.07-0.31,0.1-0.47c0.04-0.15,0.08-0.3,0.12-0.44c0.07-0.24,0.15-0.48,0.24-0.71c0.04-0.12,0.08-0.23,0.13-0.35
					c0.07-0.17,0.15-0.34,0.24-0.5c0.06-0.12,0.12-0.25,0.18-0.36c0.09-0.17,0.19-0.32,0.3-0.48c0.07-0.1,0.13-0.21,0.2-0.31
					c0.12-0.17,0.25-0.32,0.38-0.48c0.07-0.08,0.13-0.16,0.2-0.24c0.2-0.22,0.41-0.43,0.64-0.62c0,0,0.01-0.01,0.01-0.01l0,0
					c0,0,0,0,0,0l-2.28,1.96c-0.23,0.2-0.44,0.41-0.65,0.63c-0.07,0.07-0.13,0.16-0.19,0.23c-0.13,0.16-0.26,0.31-0.38,0.48
					c-0.07,0.1-0.13,0.21-0.2,0.31c-0.1,0.16-0.2,0.31-0.3,0.48c-0.07,0.12-0.12,0.24-0.18,0.36c-0.08,0.17-0.16,0.33-0.24,0.5
					c-0.02,0.04-0.04,0.07-0.05,0.11c-0.03,0.07-0.05,0.16-0.08,0.24c-0.09,0.23-0.17,0.47-0.24,0.71
					c-0.02,0.07-0.05,0.12-0.06,0.19c-0.02,0.08-0.04,0.17-0.06,0.25c-0.04,0.15-0.07,0.31-0.1,0.47c-0.02,0.08-0.04,0.16-0.05,0.24
					c-0.02,0.11-0.03,0.23-0.05,0.34c-0.02,0.12-0.03,0.24-0.05,0.36c-0.01,0.06-0.02,0.12-0.02,0.18
					c-0.03,0.25-0.04,0.51-0.06,0.77c0,0,0,0,0,0L167.45,233.82z"/>
				<g>
					<polygon class="st52" points="165.17,235.78 167.45,233.82 200.75,245.56 198.48,247.52 					"/>
				</g>
				<g>
					<polygon class="st53" points="213.06,252.66 215.34,250.7 217.17,260.68 214.89,262.64 					"/>
				</g>
				<g>
					<polygon class="st52" points="207.63,250.75 209.91,248.79 215.34,250.7 213.06,252.66 					"/>
				</g>
				<path class="st53" d="M209.91,248.79c-0.03-0.1-0.07-0.21-0.1-0.31c-0.07-0.21-0.14-0.42-0.21-0.63
					c-0.05-0.14-0.09-0.28-0.14-0.43c-0.01-0.03-0.02-0.06-0.03-0.09c-0.1-0.29-0.21-0.58-0.32-0.86c-0.03-0.09-0.07-0.18-0.1-0.27
					c0-0.01-0.01-0.02-0.01-0.03c-0.15-0.39-0.31-0.78-0.48-1.18c0-0.01-0.01-0.02-0.01-0.03c-0.05-0.12-0.1-0.23-0.15-0.35
					c-0.12-0.27-0.23-0.54-0.36-0.81c-0.01-0.03-0.02-0.05-0.04-0.08c-0.07-0.16-0.15-0.32-0.23-0.48c-0.1-0.21-0.2-0.42-0.3-0.63
					c-0.02-0.04-0.04-0.08-0.06-0.12c-0.08-0.17-0.17-0.34-0.26-0.51c-0.09-0.18-0.18-0.37-0.28-0.55
					c-0.03-0.06-0.06-0.11-0.09-0.17c-0.09-0.17-0.18-0.34-0.28-0.51c-0.09-0.16-0.17-0.32-0.26-0.47
					c-0.04-0.08-0.09-0.15-0.13-0.23c-0.09-0.16-0.19-0.33-0.28-0.49c-0.08-0.13-0.15-0.26-0.23-0.4c-0.06-0.1-0.12-0.2-0.19-0.31
					c-0.09-0.16-0.19-0.31-0.29-0.47c-0.06-0.1-0.12-0.2-0.18-0.3c-0.09-0.14-0.18-0.28-0.26-0.42c-0.09-0.14-0.18-0.29-0.28-0.43
					c-0.04-0.07-0.08-0.13-0.13-0.2c-0.12-0.19-0.25-0.38-0.38-0.56c-0.08-0.13-0.17-0.25-0.25-0.38c-0.02-0.03-0.04-0.07-0.07-0.1
					c-0.21-0.3-0.42-0.6-0.63-0.9c-0.03-0.04-0.06-0.08-0.09-0.12c0,0,0-0.01-0.01-0.01c-0.27-0.38-0.55-0.76-0.83-1.13
					c0,0-0.01-0.01-0.01-0.01c-0.3-0.4-0.61-0.8-0.93-1.2c-0.01-0.01-0.01-0.01-0.02-0.02c-0.01-0.02-0.03-0.04-0.05-0.06
					c-0.44-0.55-0.89-1.08-1.35-1.62c-0.05-0.06-0.1-0.13-0.16-0.19c-0.04-0.05-0.09-0.1-0.14-0.15c-0.26-0.3-0.53-0.6-0.81-0.9
					c-0.1-0.11-0.19-0.21-0.29-0.32c-0.37-0.4-0.74-0.79-1.12-1.18c-0.01-0.01-0.02-0.03-0.04-0.04c-0.03-0.03-0.06-0.05-0.08-0.08
					c-0.53-0.54-1.07-1.06-1.62-1.58c-0.05-0.04-0.09-0.09-0.14-0.13c-0.03-0.03-0.06-0.05-0.08-0.08
					c-0.36-0.33-0.72-0.66-1.09-0.99c-0.03-0.02-0.05-0.05-0.07-0.07c0,0,0,0-0.01-0.01c-0.37-0.33-0.75-0.64-1.12-0.96
					c-0.01,0-0.01-0.01-0.01-0.01c-0.36-0.3-0.72-0.59-1.09-0.88l0,0c-0.05-0.04-0.1-0.07-0.15-0.11c-0.32-0.25-0.64-0.5-0.97-0.74
					c0,0-0.01-0.01-0.01-0.01c-0.15-0.11-0.29-0.21-0.44-0.32c-0.23-0.16-0.45-0.33-0.68-0.49c-0.01,0-0.01-0.01-0.02-0.01
					c-0.27-0.19-0.54-0.37-0.81-0.55c-0.12-0.08-0.24-0.16-0.36-0.24c0,0-0.01,0-0.01-0.01c-0.4-0.26-0.79-0.51-1.19-0.76
					c0,0,0,0,0,0c-0.07-0.04-0.14-0.08-0.21-0.12c-0.33-0.2-0.66-0.4-1-0.59c-0.01,0-0.01-0.01-0.02-0.01
					c-0.19-0.11-0.38-0.21-0.57-0.31c-0.2-0.11-0.4-0.22-0.61-0.33c-0.01,0-0.01-0.01-0.02-0.01c-0.25-0.13-0.51-0.26-0.77-0.39
					c-0.14-0.07-0.28-0.14-0.41-0.21c0,0-0.01,0-0.01,0c-0.38-0.18-0.77-0.36-1.15-0.53c-0.01,0-0.02-0.01-0.02-0.01
					c-0.1-0.04-0.19-0.08-0.29-0.12c-0.27-0.12-0.54-0.24-0.82-0.34c-0.02-0.01-0.05-0.02-0.07-0.03c-0.14-0.05-0.27-0.1-0.41-0.16
					c-0.21-0.08-0.42-0.16-0.63-0.24c-0.09-0.03-0.17-0.06-0.26-0.09c-0.28-0.1-0.55-0.19-0.83-0.28c-0.1-0.03-0.21-0.06-0.31-0.09
					c-0.14-0.04-0.28-0.09-0.42-0.13c-0.11-0.03-0.22-0.07-0.33-0.1c-0.17-0.05-0.34-0.09-0.52-0.13c-0.12-0.03-0.25-0.07-0.37-0.1
					c-0.05-0.01-0.1-0.03-0.15-0.04c-0.34-0.08-0.68-0.16-1.02-0.22c-0.34-0.07-0.68-0.13-1.01-0.18c-0.04-0.01-0.09-0.01-0.13-0.02
					c-0.12-0.02-0.24-0.03-0.37-0.05c-0.17-0.02-0.34-0.05-0.51-0.07c-0.08-0.01-0.17-0.01-0.25-0.02
					c-0.14-0.01-0.28-0.03-0.42-0.04c-0.11-0.01-0.23-0.02-0.34-0.03c-0.12-0.01-0.23-0.01-0.34-0.01c-0.15-0.01-0.3-0.01-0.45-0.02
					c-0.08,0-0.16-0.01-0.23-0.01c-0.14,0-0.27,0.01-0.41,0.01c-0.15,0-0.31,0-0.46,0.01c-0.06,0-0.11,0-0.17,0
					c-0.13,0.01-0.26,0.02-0.4,0.03c-0.18,0.01-0.36,0.03-0.54,0.04c-0.05,0.01-0.1,0.01-0.15,0.01c-0.11,0.01-0.22,0.04-0.33,0.05
					c-0.21,0.03-0.41,0.06-0.62,0.09c-0.06,0.01-0.12,0.02-0.17,0.03c-0.09,0.02-0.17,0.04-0.26,0.06
					c-0.24,0.05-0.48,0.11-0.71,0.17c-0.07,0.02-0.15,0.03-0.22,0.05c-0.1,0.03-0.2,0.06-0.31,0.1c-0.07,0.02-0.15,0.04-0.22,0.07
					c-0.27,0.09-0.53,0.18-0.79,0.28c-0.01,0-0.02,0.01-0.03,0.01c-0.08,0.03-0.16,0.07-0.25,0.11c-0.2,0.09-0.41,0.18-0.6,0.27
					c-0.1,0.05-0.2,0.11-0.31,0.16c-0.13,0.07-0.26,0.13-0.38,0.2c-0.03,0.02-0.06,0.04-0.1,0.06c-0.2,0.12-0.39,0.24-0.58,0.37
					c-0.09,0.06-0.19,0.12-0.28,0.19c-0.27,0.2-0.54,0.4-0.8,0.62l-2.28,1.96c0.26-0.22,0.52-0.43,0.8-0.62
					c0.09-0.06,0.18-0.12,0.28-0.18c0.19-0.13,0.38-0.25,0.58-0.37c0.16-0.09,0.32-0.18,0.48-0.27c0.1-0.05,0.2-0.11,0.31-0.16
					c0.2-0.1,0.4-0.19,0.6-0.27c0.08-0.04,0.16-0.07,0.24-0.11c0.27-0.11,0.54-0.21,0.82-0.3c0.07-0.02,0.15-0.05,0.22-0.07
					c0.17-0.05,0.35-0.1,0.53-0.15c0.23-0.06,0.47-0.12,0.71-0.17c0.14-0.03,0.28-0.06,0.43-0.09c0.2-0.04,0.41-0.07,0.62-0.09
					c0.16-0.02,0.32-0.05,0.49-0.06c0.18-0.02,0.36-0.03,0.54-0.04c0.19-0.01,0.37-0.03,0.57-0.04c0.15-0.01,0.3-0.01,0.45-0.01
					c0.21,0,0.43,0,0.64,0c0.15,0,0.3,0.01,0.45,0.02c0.22,0.01,0.45,0.02,0.68,0.04c0.14,0.01,0.28,0.02,0.42,0.04
					c0.25,0.02,0.51,0.05,0.76,0.09c0.12,0.02,0.24,0.03,0.37,0.05c0.75,0.11,1.53,0.27,2.32,0.46c0.12,0.03,0.25,0.06,0.37,0.1
					c0.28,0.07,0.56,0.15,0.84,0.23c0.14,0.04,0.28,0.08,0.42,0.13c0.38,0.12,0.75,0.24,1.14,0.37c0.3,0.1,0.59,0.22,0.88,0.33
					c0.14,0.05,0.27,0.1,0.41,0.16c0.3,0.12,0.59,0.24,0.89,0.37c0.1,0.04,0.19,0.08,0.29,0.12c0.4,0.17,0.79,0.36,1.19,0.55
					c0.13,0.06,0.26,0.13,0.39,0.2c0.27,0.13,0.54,0.27,0.81,0.41c0.2,0.1,0.4,0.22,0.6,0.33c0.2,0.11,0.41,0.22,0.61,0.33
					c0.33,0.19,0.66,0.39,0.99,0.58c0.07,0.04,0.14,0.08,0.22,0.13c0.4,0.24,0.8,0.5,1.19,0.76c0.12,0.08,0.25,0.17,0.37,0.25
					c0.27,0.18,0.54,0.36,0.81,0.55c0.24,0.16,0.47,0.34,0.7,0.51c0.15,0.11,0.3,0.21,0.44,0.32c0.33,0.24,0.66,0.5,0.98,0.75
					c0.05,0.04,0.1,0.07,0.14,0.11c0.37,0.29,0.74,0.59,1.1,0.89c0.38,0.31,0.75,0.63,1.12,0.96c0.02,0.02,0.05,0.04,0.07,0.07
					c0.37,0.33,0.74,0.66,1.1,0.99c0.07,0.07,0.15,0.14,0.22,0.21c0.55,0.51,1.09,1.04,1.62,1.58c0.04,0.04,0.08,0.08,0.12,0.12
					c0.38,0.39,0.75,0.78,1.12,1.18c0.1,0.11,0.19,0.21,0.29,0.32c0.27,0.3,0.54,0.6,0.81,0.9c0.1,0.11,0.2,0.23,0.29,0.34
					c0.46,0.53,0.91,1.07,1.35,1.61c0.02,0.03,0.04,0.05,0.06,0.08c0.32,0.4,0.63,0.79,0.93,1.2c0.29,0.38,0.57,0.77,0.85,1.16
					c0.03,0.04,0.05,0.07,0.08,0.11c0.24,0.34,0.48,0.68,0.71,1.02c0.08,0.12,0.17,0.25,0.25,0.37c0.17,0.25,0.34,0.51,0.51,0.77
					c0.09,0.14,0.18,0.29,0.28,0.43c0.15,0.24,0.3,0.48,0.45,0.72c0.1,0.16,0.19,0.31,0.28,0.47c0.14,0.23,0.28,0.47,0.41,0.7
					c0.09,0.16,0.19,0.33,0.28,0.49c0.13,0.23,0.26,0.47,0.39,0.71c0.09,0.17,0.18,0.34,0.27,0.51c0.13,0.24,0.25,0.48,0.37,0.72
					c0.09,0.17,0.17,0.34,0.25,0.5c0.12,0.25,0.24,0.51,0.36,0.76c0.07,0.16,0.15,0.31,0.22,0.47c0.14,0.3,0.27,0.6,0.4,0.9
					c0.05,0.11,0.1,0.23,0.15,0.34c0.17,0.41,0.34,0.82,0.5,1.23c0.03,0.09,0.06,0.17,0.1,0.26c0.12,0.32,0.24,0.65,0.36,0.97
					c0.05,0.14,0.09,0.28,0.14,0.42c0.11,0.31,0.21,0.63,0.31,0.94l0,0l0,0L209.91,248.79z"/>
				<g>
					<path class="st39" d="M207.63,250.75l5.42,1.91l1.83,9.98l-62.46-22.02l-1.83-9.98l5.42,1.91
						c-0.52-12.39,8.48-18.57,21.57-13.95C190.68,223.21,203.36,237.04,207.63,250.75z M165.17,235.78l33.3,11.74
						c-3.21-8.48-11.06-16.73-19.17-19.58C171.2,225.08,165.49,228.54,165.17,235.78"/>
				</g>
			</g>
		</g>
		<g>
			<path class="st18" d="M285.64,117.16c0,0,0.01,0,0.01-0.01c0,0,0,0,0.01-0.01l0.02-0.01l0,0c0.69-0.52,0.62-1.81-0.16-2.92
				c-0.79-1.12-2.01-1.62-2.72-1.11l-4.63,3.15c-0.71,0.5-0.65,1.82,0.13,2.94c0.79,1.12,2.01,1.62,2.72,1.11L285.64,117.16z"/>
			<path class="st40" d="M287.82,115.68c0,0,0.01,0,0.01-0.01c0,0,0,0,0.01-0.01l0.02-0.01l0,0c0.69-0.52,0.62-1.81-0.16-2.92
				c-0.79-1.12-2.01-1.62-2.72-1.11l-4.63,3.15c-0.71,0.5-0.65,1.82,0.13,2.94c0.79,1.12,2.01,1.62,2.72,1.11L287.82,115.68z"/>
			<g>
				<path class="st46" d="M281.74,116.85c0.79,1.12,2.01,1.62,2.72,1.11l40.7-27.72l-2.88-4.03l-40.68,27.7
					C280.89,114.42,280.95,115.74,281.74,116.85z"/>
				
					<ellipse transform="matrix(0.8175 -0.576 0.576 0.8175 8.2631 202.5592)" class="st54" cx="323.71" cy="88.24" rx="1.58" ry="2.48"/>
			</g>
			<path class="st55" d="M330.7,84.07c-0.21,0.14-0.8-0.67-0.56-0.83c-2.57,0.88-7.33,2.61-7.85,2.98c-0.71,0.5-0.65,1.82,0.13,2.94
				c0.79,1.12,2.01,1.62,2.72,1.11C325.66,89.9,328.96,86.14,330.7,84.07z"/>
			<path class="st56" d="M330.7,84.07c0.66-0.78,1.09-1.32,1.07-1.34c-0.02-0.02-0.68,0.19-1.64,0.52
				C329.9,83.4,330.5,84.21,330.7,84.07z"/>
		</g>
		<g>
			<g>
				<path class="st19" d="M264.56,302.19c1.2-0.09,2.13-0.78,2.07-1.54l-0.16-2.79l-4.34,0.34l0.15,2.77
					C262.34,301.72,263.36,302.27,264.56,302.19z"/>
				
					<ellipse transform="matrix(-0.0716 -0.9974 0.9974 -0.0716 -14.0361 582.9941)" class="st57" cx="264.31" cy="298.03" rx="1.39" ry="2.18"/>
			</g>
			<path class="st41" d="M265.58,283.24c0,0,0-0.01,0-0.01c0,0,0-0.01,0-0.01l0-0.02l0,0c-0.07-0.72-1.04-1.24-2.18-1.16
				c-1.15,0.08-2.04,0.75-1.99,1.48l0.81,14.56c0.05,0.74,1.03,1.26,2.18,1.18c1.15-0.08,2.04-0.75,1.99-1.48L265.58,283.24z"/>
			<g>
				<path class="st58" d="M263.78,288.15c1.15-0.08,2.04-0.75,1.99-1.48l-2.31-41.48l-4.17,0.32l2.31,41.46
					C261.65,287.7,262.63,288.23,263.78,288.15z"/>
				
					<ellipse transform="matrix(-0.0716 -0.9974 0.9974 -0.0716 35.3705 523.6334)" class="st54" cx="261.37" cy="245.36" rx="1.34" ry="2.09"/>
			</g>
			<path class="st59" d="M261.4,238.48c0.01,0.21-0.83,0.29-0.84,0.05c-0.48,2.24-1.3,6.44-1.26,6.97c0.05,0.74,1.03,1.26,2.18,1.18
				c1.15-0.08,2.04-0.75,1.99-1.48C263.42,244.67,262.14,240.64,261.4,238.48z"/>
			<path class="st41" d="M261.4,238.48c-0.14-0.42-0.27-0.77-0.37-1.01c-0.04-0.11-0.2-0.1-0.23,0.01
				c-0.06,0.25-0.15,0.61-0.24,1.04C260.57,238.77,261.41,238.69,261.4,238.48z"/>
			<path class="st19" d="M266.16,286.11c0.23-0.01,0.44,0.14,0.51,0.36c0.23,0.76,0.96,1.01,1.01,1.95l0.51,9.07
				c0.03,0.53-0.37,0.98-0.9,1.01l-0.77,0.04l-0.03-0.54l0.57-0.03c0.33-0.02,0.58-0.3,0.56-0.63l-0.48-8.68
				c-0.07-1.24-0.95-0.94-1.08-2.43C266.05,286.17,266.1,286.11,266.16,286.11L266.16,286.11z"/>
		</g>
		<g>
			<g class="st23">
				<g>
					<polygon class="st60" points="246.17,108.62 244.97,106.54 205.4,106.54 206.6,108.62 					"/>
				</g>
				<g>
					<polygon class="st60" points="217.15,72.62 215.95,70.53 190.75,114.47 191.95,116.55 					"/>
				</g>
				<g>
					<polygon class="st27" points="271.63,116.55 270.43,114.46 215.95,70.53 217.15,72.62 					"/>
				</g>
				<g>
					<path class="st26" d="M191.95,116.55l25.2-43.93l54.48,43.93L191.95,116.55z M206.6,108.62l39.57,0l-27.06-21.82L206.6,108.62"
						/>
				</g>
			</g>
		</g>
		<g>
			<path class="st61" d="M284.12,98.39c-1.82-3.32-5.02-5.07-7.14-3.9l-74.82,39.84l5.79,12.49l75.62-40.31
				C285.7,105.35,285.94,101.71,284.12,98.39z"/>
			<path class="st62" d="M207.95,146.83c2.08-1.14,2.35-4.67,0.63-7.94l-7.73,4.11C202.68,146.26,205.85,147.98,207.95,146.83z"/>
			<path class="st63" d="M209.46,141.15c-0.24-0.79-0.52-1.63-0.96-2.44c-1.82-3.32-4.68-5.25-6.37-4.32
				c-1.7,0.93-1.6,4.38,0.22,7.7c0.43,0.78,0.92,1.49,1.44,2.1L209.46,141.15z"/>
			<g>
				<path class="st64" d="M258.99,111.87c-1.82-3.32-5.11-5.12-7.23-3.96l-16.64,8.79c2.12-1.13,5.38,0.67,7.19,3.97
					c1.82,3.32,1.58,6.95-0.54,8.12l16.67-8.81C260.57,118.83,260.81,115.19,258.99,111.87z"/>
			</g>
			<g>
				<path class="st64" d="M260.22,129.51c-1.46-0.05-3.34-0.83-5-1.93c-2.68-1.78-4.83-4.44-3.74-6.09c1.09-1.65,4.38-0.7,7.07,1.08
					c1.36,0.9,2.5,1.96,3.22,3c1.15,1.65,0.82,2.64,0.52,3.09C261.86,129.29,261.12,129.54,260.22,129.51z M253.47,122.09
					c-0.41-0.01-0.69,0.06-0.78,0.21c-0.3,0.46,0.73,2.35,3.33,4.08c2.6,1.73,4.75,1.94,5.05,1.48l0,0c0.12-0.18,0.01-0.72-0.5-1.46
					c-0.62-0.89-1.62-1.82-2.83-2.62C255.95,122.59,254.38,122.12,253.47,122.09z"/>
			</g>
			<g>
				<path class="st64" d="M246.16,134.14c-0.39-0.01-0.69-0.14-0.88-0.26c-1.67-1.05-0.81-4.36,0.91-7.09
					c0.87-1.38,1.9-2.54,2.92-3.29c1.62-1.18,2.62-0.88,3.08-0.59c1.67,1.05,0.81,4.36-0.91,7.09c-0.87,1.38-1.91,2.54-2.92,3.29
					C247.43,133.97,246.7,134.16,246.16,134.14z M251.27,124.1c-0.26-0.01-0.71,0.15-1.29,0.58c-0.87,0.64-1.78,1.66-2.55,2.89
					c-1.66,2.64-1.83,4.79-1.36,5.09c0.19,0.12,0.72,0,1.45-0.54c0.87-0.64,1.78-1.66,2.55-2.89c1.66-2.64,1.83-4.79,1.36-5.09
					C251.39,124.11,251.33,124.1,251.27,124.1z"/>
			</g>
		</g>
		<g>
			<g>
				<path class="st22" d="M298.02,263.91c3.35,3.3,7.98,3.31,11.12,0.92c2.66-3.88,9.29-5.31,9.29-5.31l-15.97-15.69
					c0,0-1.29,5.64-5.45,9.06C294.59,256.01,294.68,260.62,298.02,263.91z"/>
				
					<ellipse transform="matrix(0.7051 -0.7091 0.7091 0.7051 -86.9594 294.3561)" class="st65" cx="310.41" cy="251.73" rx="7.15" ry="11.19"/>
			</g>
			<g>
				<path class="st61" d="M301.71,260.39c4.99,4.96,11.6,6.4,14.77,3.21l10.92-10.64l-18.17-17.86l-10.81,10.53
					C295.24,248.82,296.72,255.43,301.71,260.39z"/>
				
					<ellipse transform="matrix(0.7051 -0.7091 0.7091 0.7051 -79.2284 297.6645)" class="st66" cx="318.25" cy="244.09" rx="8.14" ry="12.74"/>
			</g>
			<g>
				<path class="st67" d="M325.66,254.65l0.07-0.07l-0.01-0.01C325.7,254.6,325.68,254.63,325.66,254.65z"/>
				<path class="st68" d="M325.57,254.74c-3.19,3.12-9.76,1.68-14.72-3.26c-4.99-4.96-6.46-11.57-3.29-14.76l-0.89,0.87
					c-3.17,3.19-1.7,9.79,3.29,14.76c4.99,4.96,11.6,6.4,14.77,3.21L325.57,254.74z"/>
				<path class="st68" d="M323.52,256.74c-3.19,3.12-9.76,1.68-14.72-3.26c-4.99-4.96-6.46-11.57-3.29-14.76l-0.89,0.87
					c-3.17,3.19-1.7,9.79,3.29,14.76c4.99,4.96,11.6,6.4,14.77,3.21L323.52,256.74z"/>
				<path class="st68" d="M321.46,258.74c-3.19,3.12-9.76,1.68-14.72-3.26c-4.99-4.96-6.46-11.57-3.29-14.76l-0.89,0.87
					c-3.17,3.19-1.7,9.79,3.29,14.76c4.99,4.96,11.6,6.4,14.77,3.21L321.46,258.74z"/>
				<path class="st68" d="M319.41,260.74c-3.19,3.12-9.76,1.68-14.72-3.26c-4.99-4.96-6.46-11.57-3.29-14.76l-0.89,0.87
					c-3.17,3.19-1.7,9.79,3.29,14.76c4.99,4.96,11.6,6.4,14.77,3.21L319.41,260.74z"/>
			</g>
			<path class="st46" d="M357.97,237.18c8.3-8.08,8.26-22.27-0.51-31.27c-8.77-9-22.95-9.41-31.25-1.33
				c-0.14,0.14-0.26,0.29-0.39,0.42l-0.02-0.02c-14.31,13.94-9.72,28.86-14.02,33.04l0.01,0.01c-0.03,0.03-0.08,0.05-0.11,0.08
				c-2.03,2.05-0.87,6.52,2.61,9.98c3.42,3.41,7.78,4.55,9.86,2.63l0.01,0.01c4.29-4.18,19.09,0.8,33.4-13.14l-0.02-0.02
				C357.68,237.43,357.83,237.31,357.97,237.18z"/>
			<circle class="st69" cx="343.83" cy="207.09" r="2.41"/>
		</g>
		<g>
			<g>
				<g>
					<path class="st18" d="M314.74,110.96c0.39,2.27,1.88,3.91,3.33,3.66l11.39-1.77l-1.46-8.21l-11.34,1.76
						C315.21,106.64,314.35,108.69,314.74,110.96z"/>
					
						<ellipse transform="matrix(0.9856 -0.1691 0.1691 0.9856 -13.6535 57.1368)" class="st70" cx="328.71" cy="108.75" rx="2.67" ry="4.17"/>
				</g>
				<g>
					<path class="st18" d="M326.68,109.1c0.3,1.76,1.46,3.04,2.59,2.84l19.61-3.04l-1.13-6.38l-19.57,3.04
						C327.05,105.75,326.38,107.33,326.68,109.1z"/>
					
						<ellipse transform="matrix(0.9856 -0.1691 0.1691 0.9856 -12.858 60.4033)" class="st71" cx="348.3" cy="105.71" rx="2.07" ry="3.24"/>
				</g>
			</g>
			<path class="st72" d="M350.3,110.52c0.08,0.12,0.17,0.24,0.26,0.35l1.68,2.07c-0.09-0.11-0.18-0.23-0.26-0.35
				c-0.03-0.04-0.05-0.08-0.08-0.12c-0.05-0.08-0.1-0.17-0.15-0.25c-0.02-0.03-0.03-0.06-0.05-0.1c-0.1-0.2-0.2-0.4-0.28-0.62
				c-0.01-0.02-0.01-0.03-0.02-0.05c-0.05-0.15-0.1-0.31-0.14-0.47c-0.01-0.05-0.03-0.11-0.04-0.16c-0.02-0.1-0.05-0.21-0.06-0.32
				c-0.01-0.06-0.02-0.12-0.03-0.18c-0.01-0.09-0.02-0.17-0.03-0.26c-0.01-0.07-0.02-0.14-0.02-0.21c-0.01-0.07-0.01-0.15-0.01-0.22
				c0-0.08-0.01-0.16-0.01-0.25c0-0.07,0-0.14,0-0.21c0-0.09,0-0.18,0.01-0.27c0-0.06,0.01-0.12,0.01-0.18
				c0.01-0.1,0.02-0.2,0.03-0.29c0.01-0.06,0.01-0.12,0.02-0.19c0.01-0.11,0.03-0.22,0.05-0.33c0.01-0.05,0.02-0.1,0.03-0.15
				c0.06-0.32,0.13-0.65,0.23-0.99c0.01-0.05,0.03-0.11,0.05-0.16c0.03-0.12,0.07-0.24,0.11-0.36c0.02-0.06,0.04-0.12,0.06-0.18
				c0.06-0.16,0.11-0.32,0.18-0.48c0.07-0.18,0.15-0.36,0.22-0.54c0.01-0.01,0.01-0.02,0.01-0.04c0.08-0.18,0.16-0.35,0.24-0.53
				c0.03-0.06,0.06-0.12,0.09-0.18c0.06-0.12,0.12-0.24,0.18-0.35c0.04-0.07,0.08-0.14,0.12-0.21c0.06-0.11,0.12-0.21,0.18-0.32
				c0.04-0.08,0.09-0.15,0.14-0.23c0.06-0.1,0.12-0.2,0.18-0.3c0.05-0.08,0.1-0.16,0.15-0.24c0.06-0.1,0.13-0.2,0.19-0.29
				c0.05-0.08,0.11-0.16,0.16-0.24c0.07-0.1,0.14-0.2,0.21-0.3c0.05-0.07,0.1-0.15,0.16-0.22c0.08-0.1,0.16-0.21,0.24-0.31
				c0.05-0.07,0.1-0.13,0.15-0.2c0.09-0.12,0.19-0.24,0.29-0.36c0.04-0.05,0.08-0.09,0.11-0.14c0.14-0.17,0.28-0.33,0.42-0.49
				c0.02-0.02,0.05-0.05,0.07-0.07c0.12-0.14,0.25-0.28,0.37-0.41c0.16-0.17,0.32-0.34,0.49-0.51c0,0,0.01-0.01,0.01-0.01
				c0.24-0.24,0.48-0.47,0.73-0.7c0.05-0.04,0.09-0.09,0.14-0.13c0.31-0.29,0.64-0.57,0.97-0.84c0.04-0.04,0.09-0.07,0.13-0.11
				c0.24-0.19,0.47-0.38,0.71-0.56c0.09-0.07,0.18-0.13,0.27-0.2c0.09-0.07,0.19-0.14,0.28-0.21c0.13-0.1,0.27-0.19,0.41-0.28
				c0.04-0.03,0.08-0.06,0.13-0.09c0.17-0.12,0.35-0.23,0.53-0.35c0.05-0.03,0.09-0.06,0.14-0.09c0.13-0.08,0.26-0.16,0.4-0.24
				c0.06-0.04,0.12-0.07,0.18-0.11c0.13-0.07,0.26-0.15,0.38-0.22c0.05-0.03,0.11-0.06,0.16-0.09c0.17-0.09,0.34-0.18,0.51-0.27
				c0.01-0.01,0.03-0.02,0.04-0.02c0.19-0.1,0.37-0.19,0.56-0.28c0.06-0.03,0.12-0.06,0.18-0.08c0.13-0.06,0.26-0.12,0.39-0.18
				c0.07-0.03,0.14-0.06,0.21-0.09c0.12-0.05,0.24-0.1,0.36-0.15c0.07-0.03,0.14-0.06,0.22-0.09c0.13-0.05,0.25-0.1,0.38-0.14
				c0.07-0.02,0.13-0.05,0.2-0.07c0.16-0.06,0.33-0.11,0.49-0.17c0.02-0.01,0.05-0.02,0.07-0.02c0.19-0.06,0.38-0.12,0.56-0.17
				c0.05-0.02,0.11-0.03,0.16-0.04c0.14-0.04,0.27-0.07,0.41-0.11c0.06-0.02,0.13-0.03,0.19-0.05c0.13-0.03,0.26-0.06,0.39-0.08
				c0.06-0.01,0.12-0.03,0.18-0.04c0.18-0.03,0.36-0.07,0.54-0.1c0.19-0.03,0.38-0.05,0.56-0.07c0.05-0.01,0.1-0.01,0.15-0.01
				c0.13-0.01,0.25-0.02,0.38-0.03c0.07,0,0.14-0.01,0.21-0.01c0.11,0,0.21-0.01,0.31-0.01c0.08,0,0.15,0,0.23,0
				c0.1,0,0.19,0,0.29,0c0.08,0,0.17,0.01,0.25,0.01c0.08,0,0.17,0.01,0.25,0.02c0.1,0.01,0.2,0.02,0.29,0.03
				c0.07,0.01,0.15,0.02,0.22,0.03c0.12,0.02,0.23,0.04,0.34,0.06c0.06,0.01,0.12,0.02,0.18,0.03c0.19,0.04,0.37,0.09,0.55,0.14
				c0.02,0.01,0.04,0.01,0.06,0.02c0.24,0.07,0.46,0.16,0.68,0.25c0.02,0.01,0.03,0.01,0.05,0.02c0.18,0.08,0.35,0.17,0.51,0.26
				c0.04,0.02,0.08,0.05,0.12,0.07c0.15,0.09,0.3,0.19,0.44,0.29c0.01,0.01,0.02,0.01,0.03,0.02c0.15,0.11,0.28,0.23,0.42,0.35
				c0.03,0.03,0.06,0.06,0.1,0.09c0.13,0.13,0.25,0.26,0.37,0.4l-1.68-2.07c-0.11-0.14-0.24-0.27-0.37-0.4
				c-0.03-0.03-0.06-0.06-0.1-0.09c-0.13-0.12-0.27-0.24-0.42-0.35c-0.01-0.01-0.02-0.01-0.03-0.02c-0.14-0.1-0.29-0.2-0.44-0.29
				c-0.04-0.02-0.08-0.05-0.12-0.07c-0.16-0.09-0.33-0.18-0.51-0.26c-0.01,0-0.01-0.01-0.01-0.01c-0.01-0.01-0.03-0.01-0.04-0.01
				c-0.22-0.09-0.44-0.18-0.68-0.25c-0.01,0-0.02-0.01-0.04-0.01c-0.01,0-0.01,0-0.02,0c-0.18-0.05-0.36-0.1-0.55-0.14
				c-0.02,0-0.03-0.01-0.05-0.01c-0.04-0.01-0.09-0.01-0.13-0.02c-0.11-0.02-0.22-0.04-0.34-0.06c-0.03,0-0.06-0.01-0.09-0.02
				c-0.04-0.01-0.09-0.01-0.13-0.01c-0.1-0.01-0.19-0.02-0.29-0.03c-0.04,0-0.08-0.01-0.12-0.01c-0.04,0-0.09,0-0.13-0.01
				c-0.08,0-0.17-0.01-0.25-0.01c-0.04,0-0.09,0-0.13-0.01c-0.05,0-0.1,0-0.15,0c-0.08,0-0.15,0-0.23,0c-0.04,0-0.08,0-0.12,0
				c-0.07,0-0.13,0.01-0.2,0.01c-0.07,0-0.14,0.01-0.21,0.01c-0.03,0-0.06,0-0.09,0c-0.1,0.01-0.19,0.02-0.29,0.03
				c-0.05,0.01-0.1,0.01-0.16,0.01c-0.01,0-0.02,0-0.04,0c-0.16,0.02-0.33,0.04-0.49,0.06c-0.01,0-0.02,0-0.03,0
				c-0.15,0.02-0.31,0.05-0.46,0.08c-0.03,0.01-0.06,0.01-0.09,0.02c-0.06,0.01-0.12,0.03-0.19,0.04c-0.07,0.01-0.14,0.03-0.22,0.04
				c-0.06,0.01-0.11,0.03-0.17,0.04c-0.06,0.02-0.13,0.03-0.19,0.05c-0.04,0.01-0.09,0.02-0.13,0.03c-0.09,0.02-0.18,0.05-0.28,0.08
				c-0.05,0.01-0.11,0.03-0.16,0.04c-0.02,0.01-0.04,0.01-0.05,0.01c-0.17,0.05-0.33,0.1-0.5,0.15c0,0-0.01,0-0.01,0
				c-0.03,0.01-0.05,0.02-0.08,0.03c-0.14,0.05-0.28,0.09-0.42,0.14c-0.02,0.01-0.05,0.02-0.07,0.03c-0.07,0.02-0.13,0.05-0.2,0.07
				c-0.08,0.03-0.16,0.06-0.24,0.09c-0.04,0.02-0.09,0.04-0.13,0.05c-0.07,0.03-0.14,0.06-0.22,0.09c-0.05,0.02-0.11,0.04-0.16,0.07
				c-0.07,0.03-0.13,0.06-0.2,0.09c-0.07,0.03-0.14,0.06-0.22,0.09c-0.04,0.02-0.07,0.03-0.11,0.05c-0.09,0.04-0.19,0.09-0.28,0.13
				c-0.06,0.03-0.12,0.06-0.18,0.09c-0.02,0.01-0.03,0.02-0.05,0.02c-0.17,0.08-0.33,0.16-0.5,0.25c0,0,0,0-0.01,0
				c-0.02,0.01-0.03,0.02-0.05,0.03c-0.15,0.08-0.29,0.15-0.44,0.23c-0.02,0.01-0.05,0.03-0.07,0.04c-0.06,0.03-0.11,0.06-0.16,0.09
				c-0.08,0.04-0.16,0.09-0.24,0.13c-0.05,0.03-0.1,0.06-0.15,0.09c-0.06,0.04-0.12,0.07-0.18,0.11c-0.04,0.03-0.09,0.05-0.13,0.08
				c-0.09,0.05-0.17,0.11-0.26,0.16c-0.05,0.03-0.1,0.06-0.14,0.09c-0.02,0.01-0.03,0.02-0.05,0.03c-0.15,0.1-0.31,0.2-0.46,0.3
				c-0.01,0-0.01,0.01-0.02,0.01c-0.04,0.03-0.09,0.06-0.13,0.09c-0.12,0.08-0.23,0.16-0.34,0.24c-0.02,0.01-0.04,0.03-0.05,0.04
				c-0.09,0.07-0.19,0.14-0.28,0.21c-0.08,0.06-0.15,0.11-0.23,0.17c-0.01,0.01-0.03,0.02-0.04,0.03c-0.24,0.18-0.48,0.37-0.72,0.56
				c-0.02,0.02-0.04,0.03-0.06,0.05c-0.02,0.02-0.04,0.04-0.07,0.06c-0.33,0.27-0.65,0.55-0.97,0.84c-0.02,0.02-0.04,0.03-0.05,0.04
				c-0.03,0.03-0.06,0.05-0.08,0.08c-0.25,0.23-0.5,0.47-0.73,0.71l0,0l0,0c-0.17,0.17-0.34,0.34-0.5,0.52
				c-0.01,0.01-0.02,0.02-0.02,0.02c-0.12,0.13-0.24,0.26-0.35,0.39c-0.02,0.02-0.04,0.05-0.07,0.07c0,0,0,0,0,0
				c-0.14,0.15-0.27,0.31-0.4,0.46c-0.01,0.01-0.01,0.02-0.02,0.02c-0.04,0.05-0.08,0.1-0.12,0.14c-0.08,0.1-0.16,0.2-0.24,0.3
				c-0.01,0.02-0.03,0.04-0.04,0.06c-0.05,0.07-0.1,0.13-0.15,0.2c-0.06,0.08-0.12,0.15-0.17,0.23c-0.02,0.03-0.04,0.06-0.06,0.08
				c-0.05,0.07-0.11,0.15-0.16,0.22c-0.05,0.06-0.09,0.13-0.14,0.19c-0.03,0.04-0.05,0.07-0.07,0.11c-0.05,0.08-0.11,0.16-0.16,0.24
				c-0.04,0.06-0.08,0.11-0.11,0.17c-0.03,0.04-0.05,0.09-0.08,0.13c-0.05,0.08-0.1,0.16-0.15,0.24c-0.03,0.05-0.06,0.1-0.09,0.15
				c-0.03,0.05-0.06,0.11-0.09,0.16c-0.05,0.08-0.09,0.15-0.14,0.23c-0.02,0.04-0.05,0.08-0.07,0.12c-0.04,0.07-0.07,0.13-0.11,0.2
				c-0.04,0.07-0.08,0.14-0.12,0.21c-0.02,0.03-0.03,0.06-0.05,0.09c-0.05,0.09-0.09,0.18-0.13,0.27c-0.03,0.06-0.06,0.12-0.09,0.18
				c-0.01,0.02-0.02,0.03-0.02,0.05c-0.08,0.16-0.15,0.32-0.22,0.48c0,0,0,0,0,0c-0.01,0.01-0.01,0.03-0.02,0.04
				c-0.06,0.14-0.12,0.29-0.18,0.43c-0.01,0.04-0.03,0.07-0.04,0.11c-0.05,0.12-0.09,0.24-0.13,0.35c-0.02,0.04-0.03,0.09-0.04,0.13
				c-0.02,0.06-0.04,0.12-0.06,0.18c-0.02,0.05-0.03,0.09-0.05,0.14c-0.02,0.07-0.04,0.15-0.06,0.22c-0.02,0.05-0.03,0.11-0.05,0.16
				c-0.01,0.02-0.01,0.04-0.02,0.07c-0.04,0.15-0.08,0.29-0.11,0.43c0,0,0,0,0,0l0,0c-0.03,0.15-0.06,0.29-0.09,0.44
				c0,0.02-0.01,0.04-0.01,0.05c-0.01,0.05-0.02,0.1-0.03,0.16c-0.01,0.07-0.03,0.15-0.04,0.22c-0.01,0.04-0.01,0.07-0.01,0.11
				c-0.01,0.06-0.02,0.12-0.02,0.19c-0.01,0.05-0.01,0.1-0.02,0.15c0,0.05-0.01,0.1-0.01,0.15c0,0.06-0.01,0.12-0.01,0.19
				c0,0.03-0.01,0.07-0.01,0.1c0,0.06,0,0.11,0,0.17c0,0.07,0,0.14,0,0.21c0,0.02,0,0.05,0,0.07c0,0.06,0.01,0.11,0.01,0.17
				c0,0.07,0.01,0.15,0.01,0.22c0,0.02,0,0.04,0,0.07c0,0.05,0.01,0.1,0.02,0.15c0.01,0.09,0.02,0.17,0.03,0.26
				c0,0.02,0.01,0.05,0.01,0.07c0.01,0.04,0.02,0.07,0.02,0.11c0.02,0.11,0.04,0.21,0.06,0.32c0.01,0.03,0.01,0.06,0.02,0.1
				c0.01,0.02,0.01,0.04,0.02,0.07c0.04,0.16,0.09,0.32,0.14,0.47c0,0.01,0.01,0.03,0.01,0.04c0,0,0,0,0,0.01
				c0.08,0.22,0.17,0.42,0.28,0.62c0.01,0.02,0.02,0.04,0.02,0.06c0.01,0.01,0.02,0.03,0.02,0.04c0.05,0.09,0.1,0.17,0.15,0.25
				C350.25,110.44,350.27,110.48,350.3,110.52z"/>
			<path class="st71" d="M358.35,118.63c0.04-0.01,0.08-0.02,0.12-0.02c0.08-0.02,0.17-0.03,0.25-0.05c0.1-0.02,0.2-0.04,0.29-0.06
				c0.07-0.02,0.15-0.04,0.22-0.05c0.09-0.02,0.17-0.04,0.26-0.06c0.06-0.01,0.11-0.03,0.17-0.04c0.12-0.03,0.25-0.07,0.37-0.1
				c0.07-0.02,0.14-0.04,0.21-0.06c0.02-0.01,0.05-0.01,0.07-0.02c0.22-0.06,0.45-0.13,0.67-0.2c0.01,0,0.01,0,0.02-0.01
				c0.03-0.01,0.06-0.02,0.09-0.03c0.19-0.06,0.38-0.12,0.57-0.19c0.03-0.01,0.07-0.03,0.1-0.04c0.09-0.03,0.18-0.07,0.27-0.1
				c0.11-0.04,0.22-0.08,0.33-0.12c0.06-0.02,0.12-0.05,0.18-0.07c0.1-0.04,0.19-0.08,0.29-0.12c0.07-0.03,0.15-0.06,0.22-0.09
				c0.09-0.04,0.18-0.08,0.27-0.12c0.1-0.04,0.19-0.08,0.29-0.13c0.05-0.02,0.1-0.04,0.14-0.06c0.13-0.06,0.25-0.12,0.38-0.18
				c0.08-0.04,0.16-0.08,0.24-0.11c0.02-0.01,0.05-0.02,0.07-0.03c0.23-0.11,0.45-0.22,0.67-0.34c0,0,0.01,0,0.01,0
				c0.02-0.01,0.04-0.02,0.06-0.03c0.2-0.1,0.39-0.21,0.59-0.31c0.03-0.02,0.06-0.04,0.09-0.05c0.07-0.04,0.15-0.08,0.22-0.13
				c0.11-0.06,0.21-0.12,0.32-0.18c0.07-0.04,0.13-0.08,0.2-0.12c0.08-0.05,0.16-0.1,0.25-0.15c0.06-0.04,0.12-0.07,0.18-0.11
				c0.12-0.07,0.24-0.15,0.35-0.22c0.06-0.04,0.13-0.08,0.19-0.12c0.02-0.01,0.04-0.03,0.07-0.04c0.21-0.13,0.41-0.27,0.61-0.4
				c0.01-0.01,0.02-0.01,0.03-0.02c0.06-0.04,0.12-0.08,0.18-0.12c0.16-0.11,0.31-0.21,0.47-0.32c0.02-0.02,0.05-0.04,0.07-0.05
				c0.13-0.09,0.25-0.18,0.38-0.28c0.1-0.07,0.2-0.15,0.31-0.22c0.02-0.01,0.04-0.03,0.05-0.04c0.33-0.25,0.65-0.5,0.96-0.76
				c0.03-0.02,0.05-0.04,0.08-0.06c0.03-0.02,0.06-0.05,0.09-0.08c0.44-0.37,0.88-0.74,1.3-1.13c0.02-0.02,0.05-0.04,0.07-0.06
				c0.04-0.04,0.08-0.07,0.11-0.11c0.34-0.31,0.67-0.63,0.99-0.95l0,0c0,0,0,0,0.01-0.01c0.23-0.23,0.45-0.46,0.67-0.7
				c0.01-0.01,0.02-0.02,0.03-0.03c0.16-0.17,0.31-0.34,0.47-0.52c0.03-0.04,0.07-0.07,0.1-0.11c0,0,0,0,0.01-0.01
				c0.18-0.21,0.36-0.42,0.54-0.63c0.01-0.01,0.02-0.02,0.03-0.03c0.05-0.07,0.11-0.13,0.16-0.2c0.11-0.13,0.22-0.26,0.32-0.4
				c0.02-0.03,0.04-0.05,0.06-0.08c0.07-0.09,0.14-0.18,0.21-0.27c0.08-0.1,0.16-0.2,0.23-0.3c0.03-0.04,0.05-0.08,0.08-0.11
				c0.07-0.1,0.14-0.2,0.22-0.3c0.06-0.09,0.12-0.17,0.18-0.26c0.03-0.05,0.07-0.1,0.1-0.15c0.07-0.11,0.15-0.21,0.22-0.32
				c0.05-0.07,0.1-0.15,0.15-0.22c0.04-0.06,0.07-0.12,0.11-0.18c0.07-0.11,0.14-0.21,0.2-0.32c0.04-0.06,0.08-0.13,0.12-0.19
				c0.04-0.07,0.08-0.14,0.12-0.21c0.06-0.1,0.12-0.21,0.18-0.31c0.03-0.05,0.06-0.11,0.1-0.16c0.05-0.09,0.1-0.18,0.14-0.27
				c0.05-0.1,0.11-0.19,0.16-0.29c0.02-0.04,0.04-0.08,0.06-0.12c0.06-0.12,0.12-0.24,0.18-0.36c0.04-0.08,0.08-0.16,0.12-0.24
				c0.01-0.02,0.02-0.04,0.03-0.06c0.1-0.21,0.2-0.43,0.29-0.64c0,0,0,0,0-0.01c0.01-0.02,0.01-0.03,0.02-0.05
				c0.08-0.19,0.17-0.39,0.24-0.58c0.02-0.05,0.04-0.1,0.06-0.15c0.06-0.16,0.12-0.32,0.18-0.47c0.02-0.06,0.04-0.12,0.06-0.18
				c0.03-0.08,0.05-0.16,0.08-0.24c0.02-0.06,0.04-0.13,0.06-0.19c0.03-0.1,0.06-0.2,0.09-0.29c0.02-0.07,0.04-0.14,0.06-0.21
				c0.01-0.03,0.02-0.06,0.03-0.09c0.05-0.2,0.1-0.39,0.15-0.58c0.05-0.2,0.09-0.39,0.12-0.59c0-0.03,0.01-0.05,0.01-0.07
				c0.01-0.07,0.02-0.14,0.03-0.21c0.02-0.1,0.03-0.2,0.05-0.29c0.01-0.05,0.01-0.1,0.02-0.14c0.01-0.08,0.02-0.17,0.03-0.25
				c0.01-0.06,0.02-0.13,0.02-0.19c0.01-0.07,0.01-0.13,0.01-0.2c0.01-0.08,0.01-0.17,0.02-0.25c0-0.04,0.01-0.09,0.01-0.13
				c0-0.08,0-0.15,0-0.23c0-0.1,0-0.19,0-0.28c0-0.03,0-0.07,0-0.1c0-0.08-0.01-0.15-0.01-0.23c0-0.1-0.01-0.2-0.02-0.3
				c0-0.03,0-0.06,0-0.09c-0.01-0.07-0.02-0.13-0.02-0.2c-0.01-0.12-0.03-0.23-0.04-0.35c0-0.03-0.01-0.07-0.01-0.1
				c-0.01-0.05-0.02-0.1-0.03-0.15c-0.03-0.14-0.05-0.29-0.09-0.43c-0.01-0.04-0.02-0.09-0.03-0.13c-0.01-0.03-0.02-0.06-0.03-0.09
				c-0.06-0.21-0.12-0.42-0.19-0.63c-0.01-0.02-0.01-0.04-0.02-0.05c0,0,0-0.01-0.01-0.01c-0.02-0.04-0.03-0.08-0.05-0.12
				c-0.05-0.13-0.1-0.25-0.16-0.37c-0.03-0.06-0.06-0.12-0.09-0.17c-0.04-0.08-0.07-0.16-0.11-0.23c-0.01-0.02-0.02-0.04-0.03-0.06
				c-0.06-0.12-0.13-0.23-0.2-0.34c-0.03-0.05-0.07-0.11-0.1-0.16c-0.11-0.16-0.22-0.32-0.35-0.47l-1.68-2.07
				c0.12,0.15,0.24,0.31,0.35,0.47c0.04,0.05,0.07,0.11,0.1,0.16c0.07,0.11,0.14,0.22,0.2,0.34c0.05,0.09,0.1,0.19,0.15,0.29
				c0.03,0.06,0.06,0.12,0.09,0.17c0.06,0.12,0.11,0.25,0.16,0.37c0.02,0.04,0.03,0.08,0.05,0.12c0.01,0.02,0.01,0.04,0.02,0.07
				c0.07,0.2,0.14,0.41,0.19,0.63c0.02,0.07,0.04,0.15,0.05,0.22c0.03,0.14,0.06,0.28,0.09,0.43c0.01,0.08,0.03,0.16,0.04,0.25
				c0.02,0.12,0.03,0.23,0.04,0.35c0.01,0.1,0.02,0.19,0.03,0.29c0.01,0.1,0.01,0.2,0.02,0.3c0,0.11,0.01,0.22,0.01,0.33
				c0,0.09,0,0.19,0,0.28c0,0.12,0,0.24-0.01,0.36c0,0.08-0.01,0.17-0.02,0.25c-0.01,0.13-0.02,0.26-0.04,0.39
				c-0.01,0.08-0.02,0.17-0.03,0.25c-0.02,0.14-0.04,0.29-0.06,0.44c-0.01,0.07-0.02,0.14-0.03,0.21c-0.04,0.22-0.08,0.43-0.13,0.66
				c0,0,0,0,0,0l0,0.01c-0.05,0.22-0.11,0.44-0.17,0.67c-0.02,0.07-0.04,0.14-0.06,0.21c-0.05,0.16-0.1,0.32-0.15,0.48
				c-0.03,0.08-0.05,0.16-0.08,0.24c-0.07,0.22-0.15,0.43-0.24,0.65c-0.09,0.24-0.2,0.49-0.3,0.73c-0.01,0.02-0.01,0.03-0.02,0.05
				c-0.1,0.24-0.21,0.47-0.33,0.71c-0.04,0.08-0.08,0.16-0.12,0.24c-0.08,0.16-0.16,0.32-0.24,0.47c-0.05,0.1-0.1,0.19-0.16,0.29
				c-0.08,0.14-0.16,0.29-0.24,0.43c-0.06,0.1-0.12,0.21-0.18,0.31c-0.08,0.14-0.16,0.27-0.25,0.41c-0.07,0.11-0.13,0.21-0.2,0.32
				c-0.09,0.13-0.17,0.27-0.26,0.4c-0.07,0.11-0.14,0.21-0.22,0.32c-0.09,0.13-0.19,0.27-0.28,0.4c-0.07,0.1-0.14,0.2-0.21,0.3
				c-0.1,0.14-0.21,0.28-0.32,0.42c-0.07,0.09-0.14,0.18-0.21,0.27c-0.13,0.16-0.26,0.32-0.39,0.48c-0.05,0.06-0.1,0.13-0.15,0.19
				c-0.19,0.22-0.38,0.45-0.57,0.66c-0.03,0.03-0.05,0.06-0.08,0.09c-0.17,0.19-0.34,0.38-0.51,0.56c-0.22,0.23-0.44,0.46-0.66,0.69
				c-0.01,0.01-0.01,0.01-0.02,0.02c-0.32,0.32-0.65,0.64-0.99,0.95c-0.06,0.06-0.12,0.11-0.18,0.17c-0.42,0.39-0.86,0.76-1.3,1.13
				c-0.06,0.05-0.11,0.1-0.17,0.14c-0.32,0.26-0.64,0.51-0.96,0.76c-0.12,0.09-0.24,0.18-0.36,0.26c-0.13,0.09-0.25,0.19-0.38,0.28
				c-0.18,0.13-0.36,0.25-0.54,0.38c-0.06,0.04-0.12,0.08-0.17,0.12c-0.23,0.16-0.47,0.31-0.71,0.46c-0.06,0.04-0.13,0.08-0.19,0.12
				c-0.18,0.11-0.35,0.22-0.53,0.33c-0.08,0.05-0.16,0.1-0.25,0.15c-0.17,0.1-0.34,0.2-0.52,0.3c-0.07,0.04-0.15,0.08-0.22,0.13
				c-0.23,0.13-0.46,0.25-0.69,0.37c-0.02,0.01-0.04,0.02-0.06,0.03c-0.25,0.13-0.5,0.25-0.75,0.37c-0.08,0.04-0.17,0.08-0.25,0.12
				c-0.17,0.08-0.34,0.16-0.52,0.24c-0.1,0.04-0.19,0.08-0.29,0.13c-0.16,0.07-0.32,0.14-0.49,0.21c-0.1,0.04-0.19,0.08-0.29,0.12
				c-0.17,0.07-0.33,0.13-0.5,0.19c-0.09,0.03-0.18,0.07-0.27,0.1c-0.22,0.08-0.44,0.15-0.66,0.23c-0.03,0.01-0.06,0.02-0.1,0.03
				c-0.25,0.08-0.51,0.16-0.76,0.23c-0.07,0.02-0.14,0.04-0.22,0.06c-0.18,0.05-0.36,0.1-0.54,0.14c-0.09,0.02-0.18,0.04-0.26,0.06
				c-0.17,0.04-0.34,0.08-0.52,0.11c-0.08,0.02-0.17,0.03-0.25,0.05c-0.25,0.05-0.49,0.09-0.73,0.13c-0.26,0.04-0.51,0.07-0.76,0.1
				c-0.07,0.01-0.14,0.01-0.21,0.02c-0.17,0.02-0.34,0.03-0.51,0.04c-0.1,0.01-0.19,0.01-0.29,0.01c-0.14,0.01-0.28,0.01-0.42,0.01
				c-0.1,0-0.2,0-0.31,0c-0.13,0-0.26,0-0.38-0.01c-0.11,0-0.23-0.01-0.34-0.01c-0.11-0.01-0.23-0.01-0.34-0.02
				c-0.13-0.01-0.26-0.02-0.39-0.04c-0.1-0.01-0.2-0.02-0.3-0.04c-0.15-0.02-0.31-0.05-0.46-0.08c-0.08-0.02-0.16-0.03-0.24-0.05
				c-0.25-0.05-0.5-0.11-0.74-0.19c-0.19-0.05-0.37-0.11-0.55-0.18l0,0c-0.18-0.06-0.35-0.13-0.52-0.21
				c-0.24-0.11-0.47-0.22-0.69-0.35c-0.05-0.03-0.11-0.06-0.16-0.09c-0.21-0.12-0.4-0.25-0.59-0.39c-0.01-0.01-0.03-0.02-0.04-0.03
				c-0.2-0.15-0.38-0.31-0.56-0.48c-0.04-0.04-0.09-0.08-0.13-0.12c-0.17-0.17-0.34-0.35-0.5-0.54l0,0l0,0l1.68,2.07
				c0.15,0.19,0.32,0.37,0.5,0.54c0.04,0.04,0.08,0.08,0.13,0.12c0.18,0.17,0.36,0.33,0.56,0.48c0.01,0.01,0.03,0.02,0.04,0.03
				c0.19,0.14,0.39,0.27,0.59,0.39c0.05,0.03,0.1,0.06,0.16,0.09c0.22,0.13,0.45,0.24,0.69,0.35c0.01,0,0.01,0.01,0.02,0.01
				c0.32,0.14,0.66,0.27,1.02,0.37c0.01,0,0.02,0,0.03,0.01c0.24,0.07,0.49,0.13,0.74,0.19c0.02,0,0.04,0.01,0.06,0.02
				c0.06,0.01,0.12,0.02,0.18,0.03c0.15,0.03,0.3,0.05,0.46,0.08c0.04,0.01,0.08,0.02,0.12,0.02c0.06,0.01,0.12,0.01,0.18,0.02
				c0.13,0.02,0.26,0.03,0.39,0.04c0.05,0,0.11,0.01,0.16,0.02c0.06,0,0.12,0,0.18,0.01c0.11,0.01,0.22,0.01,0.34,0.01
				c0.06,0,0.12,0.01,0.17,0.01c0.07,0,0.14,0,0.21,0c0.1,0,0.2,0,0.3,0c0.05,0,0.1,0,0.16,0c0.09,0,0.18-0.01,0.27-0.01
				c0.1,0,0.19-0.01,0.29-0.01c0.04,0,0.08,0,0.12-0.01c0.13-0.01,0.26-0.02,0.39-0.04c0.07-0.01,0.14-0.01,0.21-0.02
				c0.02,0,0.03,0,0.05,0c0.22-0.02,0.44-0.05,0.66-0.09c0.01,0,0.03,0,0.04-0.01C357.94,118.71,358.15,118.67,358.35,118.63z"/>
			<path class="st73" d="M350.94,104.29c-2.38,6.13,0.94,10.3,7.4,9.32c6.46-0.98,13.63-6.75,16.01-12.88
				c2.37-6.13-0.94-10.3-7.41-9.31C360.48,92.4,353.32,98.16,350.94,104.29"/>
			<g>
				<path class="st20" d="M377.6,99.33c-3.2,8.25-12.84,16.01-21.54,17.33c-8.7,1.32-13.17-4.29-9.97-12.54
					c3.2-8.25,12.84-16.01,21.54-17.33C376.34,85.47,380.8,91.09,377.6,99.33z M350.14,103.51c-2.38,6.13,0.94,10.3,7.4,9.32
					c6.46-0.98,13.63-6.75,16.01-12.88c2.37-6.13-0.94-10.3-7.41-9.31C359.68,91.62,352.52,97.38,350.14,103.51"/>
			</g>
		</g>
		<g>
			<polygon class="st22" points="363.79,244.56 372.55,315.37 356.13,308.42 347.37,237.6 			"/>
			<polygon class="st20" points="352.83,244.08 354.48,257.39 351.39,256.09 349.74,242.77 			"/>
			<polygon class="st19" points="347.37,237.6 349.57,235.94 366,242.89 363.79,244.56 			"/>
			<polygon class="st74" points="366,242.89 374.76,313.71 372.55,315.37 363.79,244.56 			"/>
			<g>
				<polygon class="st20" points="358.39,243.99 358.35,243.67 363.87,246.01 363.91,246.33 				"/>
				<polygon class="st20" points="358.77,247.07 358.73,246.75 364.25,249.08 364.29,249.41 				"/>
				<polygon class="st20" points="359.15,250.15 359.11,249.82 364.63,252.16 364.67,252.49 				"/>
				<polygon class="st20" points="359.53,253.22 359.49,252.9 365.01,255.24 365.05,255.56 				"/>
				<polygon class="st20" points="359.91,256.3 359.87,255.98 365.39,258.32 365.43,258.64 				"/>
				<polygon class="st20" points="360.29,259.38 360.25,259.05 365.77,261.39 365.81,261.72 				"/>
				<polygon class="st20" points="360.67,262.46 360.63,262.13 366.15,264.47 366.19,264.79 				"/>
				<polygon class="st20" points="361.05,265.53 361.01,265.21 366.53,267.55 366.57,267.87 				"/>
				<polygon class="st20" points="361.42,268.61 361.38,268.29 366.91,270.62 366.95,270.95 				"/>
				<polygon class="st20" points="361.8,271.69 361.76,271.36 367.29,273.7 367.33,274.03 				"/>
				<polygon class="st20" points="362.18,274.76 362.14,274.44 367.66,276.78 367.7,277.1 				"/>
				<polygon class="st20" points="362.56,277.84 362.52,277.52 368.04,279.86 368.08,280.18 				"/>
				<polygon class="st20" points="362.94,280.92 362.9,280.59 368.42,282.93 368.46,283.26 				"/>
				<polygon class="st20" points="363.32,284 363.28,283.67 368.8,286.01 368.84,286.33 				"/>
				<polygon class="st20" points="363.7,287.07 363.66,286.75 369.18,289.09 369.22,289.41 				"/>
				<polygon class="st20" points="364.08,290.15 364.04,289.83 369.56,292.16 369.6,292.49 				"/>
				<polygon class="st20" points="364.46,293.23 364.42,292.9 369.94,295.24 369.98,295.56 				"/>
				<polygon class="st20" points="364.84,296.3 364.8,295.98 370.32,298.32 370.36,298.64 				"/>
				<polygon class="st20" points="365.22,299.38 365.18,299.06 370.7,301.39 370.74,301.72 				"/>
				<polygon class="st20" points="365.59,302.46 365.55,302.13 371.08,304.47 371.12,304.8 				"/>
				<polygon class="st20" points="365.97,305.53 365.93,305.21 371.46,307.55 371.5,307.87 				"/>
				<polygon class="st20" points="366.35,308.61 366.31,308.29 371.83,310.63 371.87,310.95 				"/>
				<polygon class="st20" points="366.73,311.69 366.69,311.36 372.21,313.7 372.25,314.03 				"/>
			</g>
		</g>
		<g>
			
				<linearGradient id="SVGID_18_" gradientUnits="userSpaceOnUse" x1="269.9657" y1="102.437" x2="390.346" y2="310.9418" gradientTransform="matrix(0.866 0.5 -0.5 0.866 140.9851 -91.2215)">
				<stop  offset="0.2189" style="stop-color:#FFFFFF;stop-opacity:0"/>
				<stop  offset="1" style="stop-color:#FFFFFF"/>
			</linearGradient>
			<path class="st75" d="M487.09,152.07c-25.35,45.01-200.59,49.64-231.05-19.6l-95.98,166.25c30.47,69.24,73.01,23.32,107.48,74.01
				l0.31,0.5c13.14-67.69,97.92-9.9,123.27-54.92L487.09,152.07z"/>
			
				<linearGradient id="SVGID_19_" gradientUnits="userSpaceOnUse" x1="93.3293" y1="263.6484" x2="160.4607" y2="147.3734" gradientTransform="matrix(0.866 0.5 -0.5 0.866 140.9851 -91.2215)">
				<stop  offset="0" style="stop-color:#FFFFFF"/>
				<stop  offset="0.0598" style="stop-color:#FFFFFF;stop-opacity:0.9402"/>
				<stop  offset="1" style="stop-color:#FFFFFF;stop-opacity:0"/>
			</linearGradient>
			<polygon class="st76" points="136.2,1.69 235.72,167.65 160.06,298.72 60.54,132.75 			"/>
		</g>
	</g>
</g>
<g id="DESIGNED_BY_FREEPIK">
	<g>
	</g>
	<g>
	</g>
	<g>
	</g>
	<g>
	</g>
	<g>
	</g>
	<g>
	</g>
	<g>
	</g>
	<g>
	</g>
	<g>
	</g>
	<g>
	</g>
	<g>
	</g>
	<g>
	</g>
	<g>
	</g>
	<g>
	</g>
	<g>
	</g>
	<g>
	</g>
	<g>
	</g>
	<g>
	</g>
	<g>
	</g>
</g>
</svg>
