<?xml version="1.0" encoding="utf-8"?>
<!-- Generator: Adobe Illustrator 19.0.0, SVG Export Plug-In . SVG Version: 6.00 Build 0)  -->
<svg version="1.1" id="Слой_1" xmlns="http://www.w3.org/2000/svg" xmlns:xlink="http://www.w3.org/1999/xlink" x="0px" y="0px"
	 width="1360px" height="340px" viewBox="0 0 1360 340" style="enable-background:new 0 0 1360 340;" xml:space="preserve">
<style type="text/css">
	.st0{fill:#F6FBFE;}
</style>
<path id="XMLID_6_" class="st0" d="M1360,105.75c-0.01,0-0.65-1.37-0.98-2.05c0.01-0.46,0.03-0.92,0.03-1.38
	c0-38.13-30.91-69.03-69.03-69.03c-5.96,0-11.75,0.76-17.27,2.18c-10.7-19.52-31.44-32.76-55.27-32.76
	c-30.41,0-55.8,21.55-61.7,50.22c-8.69-2.25-17.8-3.44-27.19-3.44c-60.12,0-108.86,48.97-108.86,109.38
	c0,24.7,8.15,47.48,21.89,65.78c-2.15-0.04-4.31,0.77-5.91,2.45c-0.13,0.14-0.23,0.3-0.35,0.45c-5.21-4.33-12.94-3.94-17.68,1.05
	c-0.87,0.91-1.57,1.93-2.12,2.99c-11.05-12.61-27.23-20.57-45.26-20.57c-17.7,0-33.62,7.66-44.66,19.87
	c0.32-4.53-1.3-9.16-4.82-12.54c-0.06-0.06-0.12-0.1-0.18-0.16c0.24-0.22,0.48-0.43,0.7-0.67c5.98-6.3,5.75-16.28-0.52-22.3
	c-3.92-3.76-9.27-5.07-14.19-4c-1.08-7.03-4.36-13.78-9.88-19.07c-6.7-6.43-15.39-9.48-23.97-9.21c1.33-7-0.78-14.51-6.29-19.8
	c-8.63-8.28-22.31-7.95-30.54,0.72c-0.5,0.53-0.98,1.08-1.42,1.65c-18.42-34.13-54.39-57.3-95.75-57.3
	c-60.12,0-108.86,48.97-108.86,109.38c0,9.48,1.2,18.69,3.46,27.46c-31.28,2.23-55.98,28.42-55.98,60.43c0,0.85,0.03,1.69,0.06,2.54
	c-2.02-0.8-4.22-1.25-6.52-1.25c-8.63,0-15.83,6.15-17.5,14.32c-4.58-3.55-10.31-5.69-16.55-5.69c-4.5,0-8.74,1.12-12.48,3.07
	c-5.02-13.87-17.32-24.23-32.26-26.42c0.75-4.63,1.15-9.37,1.15-14.2c0-48.73-39.32-88.24-87.81-88.24
	c-48.5,0-87.81,39.51-87.81,88.24c-9.35,0-17.6,4.75-22.48,11.99c-9.71-7.51-21.86-11.99-35.06-11.99
	c-16.03,0-30.52,6.59-40.95,17.21c-5.97-9.29-15.9-15.76-27.4-16.99c0.49-2.05,0.78-4.18,0.78-6.38c0-10.07-5.45-18.85-13.52-23.57
	c0.93-5.14,1.44-10.43,1.44-15.84c0-45.1-33.68-82.27-77.15-87.57c-2.15-20.5-19.4-36.49-40.38-36.49
	c-16.39,0-30.5,9.76-36.91,23.81c-6.02-4.18-13.32-6.63-21.19-6.63c-1.65,0-3.28,0.12-4.87,0.33V340h1243.46h36.81H1360V105.75z"/>
<g id="XMLID_1_">
</g>
<g id="XMLID_2_">
</g>
<g id="XMLID_3_">
</g>
<g id="XMLID_4_">
</g>
<g id="XMLID_5_">
</g>
<g id="XMLID_7_">
</g>
<g id="XMLID_8_">
</g>
<g id="XMLID_9_">
</g>
<g id="XMLID_10_">
</g>
<g id="XMLID_11_">
</g>
<g id="XMLID_12_">
</g>
<g id="XMLID_13_">
</g>
<g id="XMLID_14_">
</g>
<g id="XMLID_15_">
</g>
<g id="XMLID_16_">
</g>
</svg>
