<?xml version="1.0" encoding="utf-8"?>
<!-- Generator: Adobe Illustrator 19.0.0, SVG Export Plug-In . SVG Version: 6.00 Build 0)  -->
<svg version="1.1" id="Слой_1" xmlns="http://www.w3.org/2000/svg" xmlns:xlink="http://www.w3.org/1999/xlink" x="0px" y="0px"
	 width="1360px" height="340px" viewBox="200 111 1360 340" style="enable-background:new 200 111 1360 340;" xml:space="preserve">
<style type="text/css">
	.st0{fill:#F1F9FD;}
</style>
<path id="XMLID_6_" class="st0" d="M200,216.8c0,0,0.6-1.4,1-2.1c0-0.5,0-0.9,0-1.4c0-38.1,30.9-69,69-69c6,0,11.8,0.8,17.3,2.2
	c10.7-19.5,31.4-32.8,55.3-32.8c30.4,0,55.8,21.6,61.7,50.2c8.7-2.3,17.8-3.4,27.2-3.4c60.1,0,108.9,49,108.9,109.4
	c0,24.7-8.2,47.5-21.9,65.8c2.2,0,4.3,0.8,5.9,2.4c0.1,0.1,0.2,0.3,0.3,0.5c5.2-4.3,12.9-3.9,17.7,1c0.9,0.9,1.6,1.9,2.1,3
	c11-12.6,27.2-20.6,45.3-20.6c17.7,0,33.6,7.7,44.7,19.9c-0.3-4.5,1.3-9.2,4.8-12.5c0.1-0.1,0.1-0.1,0.2-0.2
	c-0.2-0.2-0.5-0.4-0.7-0.7c-6-6.3-5.8-16.3,0.5-22.3c3.9-3.8,9.3-5.1,14.2-4c1.1-7,4.4-13.8,9.9-19.1c6.7-6.4,15.4-9.5,24-9.2
	c-1.3-7,0.8-14.5,6.3-19.8c8.6-8.3,22.3-7.9,30.5,0.7c0.5,0.5,1,1.1,1.4,1.6c18.4-34.1,54.4-57.3,95.8-57.3
	c60.1,0,108.9,49,108.9,109.4c0,9.5-1.2,18.7-3.5,27.5c31.3,2.2,56,28.4,56,60.4c0,0.9,0,1.7-0.1,2.5c2-0.8,4.2-1.3,6.5-1.3
	c8.6,0,15.8,6.1,17.5,14.3c4.6-3.5,10.3-5.7,16.5-5.7c4.5,0,8.7,1.1,12.5,3.1c5-13.9,17.3-24.2,32.3-26.4c-0.8-4.6-1.1-9.4-1.1-14.2
	c0-48.7,39.3-88.2,87.8-88.2c48.5,0,87.8,39.5,87.8,88.2c9.3,0,17.6,4.8,22.5,12c9.7-7.5,21.9-12,35.1-12c16,0,30.5,6.6,40.9,17.2
	c6-9.3,15.9-15.8,27.4-17c-0.5-2-0.8-4.2-0.8-6.4c0-10.1,5.4-18.9,13.5-23.6c-0.9-5.1-1.4-10.4-1.4-15.8c0-45.1,33.7-82.3,77.2-87.6
	c2.2-20.5,19.4-36.5,40.4-36.5c16.4,0,30.5,9.8,36.9,23.8c6-4.2,13.3-6.6,21.2-6.6c1.7,0,3.3,0.1,4.9,0.3V451H316.5h-36.8H200V216.8
	z"/>
<g id="XMLID_1_">
</g>
<g id="XMLID_2_">
</g>
<g id="XMLID_3_">
</g>
<g id="XMLID_4_">
</g>
<g id="XMLID_5_">
</g>
<g id="XMLID_7_">
</g>
<g id="XMLID_8_">
</g>
<g id="XMLID_9_">
</g>
<g id="XMLID_10_">
</g>
<g id="XMLID_11_">
</g>
<g id="XMLID_12_">
</g>
<g id="XMLID_13_">
</g>
<g id="XMLID_14_">
</g>
<g id="XMLID_15_">
</g>
<g id="XMLID_16_">
</g>
</svg>
