<?xml version="1.0" encoding="utf-8"?>
<!-- Generator: Adobe Illustrator 19.0.0, SVG Export Plug-In . SVG Version: 6.00 Build 0)  -->
<svg version="1.1" id="Слой_1" xmlns="http://www.w3.org/2000/svg" xmlns:xlink="http://www.w3.org/1999/xlink" x="0px" y="0px"
	 width="1700px" height="200px" viewBox="0 0 1700 200" style="enable-background:new 0 0 1700 200;" xml:space="preserve">
<style type="text/css">
	.st0{fill:#81D0E1;}
	.st1{fill:#EDEEF0;}
	.st2{fill:#59B1BE;}
</style>
<g id="XMLID_4_">
	<g id="XMLID_1_">
		<polygon id="XMLID_20_" class="st0" points="707.35,160.17 752.58,87.81 770.38,135.86 		"/>
		<path id="XMLID_19_" class="st1" d="M752.58,87.81c-15.27,2.26-96.68,48.06-96.68,48.06l-33.04-48.06l-56.62,48.06l141.11,24.31
			L752.58,87.81z"/>
		<polygon id="XMLID_18_" class="st0" points="622.86,87.81 677.42,123.99 655.9,135.86 		"/>
		<polygon id="XMLID_15_" class="st2" points="770.38,135.86 802.33,199.74 697.17,176 645.16,186.18 566.24,135.86 709.77,159.23 
					"/>
	</g>
	<g id="XMLID_8_">
		<polygon id="XMLID_13_" class="st0" points="197.16,119.35 161.82,14.47 93,182.59 		"/>
		<polygon id="XMLID_12_" class="st1" points="161.82,14.47 0,162.13 93,182.59 		"/>
		<polygon id="XMLID_9_" class="st2" points="197.16,119.35 268.92,200 93,182.59 		"/>
	</g>
	<g id="XMLID_2_">
		<path id="XMLID_7_" class="st0" d="M894.39,163.38c2.78-3.06,50.69-92.18,50.69-92.18l25.62,63.5L894.39,163.38z"/>
		<polygon id="XMLID_6_" class="st1" points="945.08,71.2 792.64,152.53 894.39,163.38 		"/>
		<polygon id="XMLID_3_" class="st2" points="970.71,134.7 1010.24,171.25 894.39,163.38 		"/>
	</g>
</g>
<g id="XMLID_23_">
</g>
<g id="XMLID_24_">
</g>
<g id="XMLID_26_">
</g>
<g id="XMLID_27_">
</g>
<g id="XMLID_28_">
</g>
<g id="XMLID_29_">
</g>
<g id="XMLID_73_">
</g>
<g id="XMLID_74_">
</g>
<g id="XMLID_78_">
</g>
<g id="XMLID_82_">
</g>
<g id="XMLID_83_">
</g>
<g id="XMLID_84_">
</g>
<g id="XMLID_85_">
</g>
<g id="XMLID_86_">
</g>
<g id="XMLID_87_">
</g>
</svg>
