<?xml version="1.0" encoding="utf-8"?>
<!-- Generator: Adobe Illustrator 19.0.0, SVG Export Plug-In . SVG Version: 6.00 Build 0)  -->
<svg version="1.1" id="Слой_1" xmlns="http://www.w3.org/2000/svg" xmlns:xlink="http://www.w3.org/1999/xlink" x="0px" y="0px"
	 width="175px" height="100px" viewBox="0 0 175 100" style="enable-background:new 0 0 175 100;" xml:space="preserve">
<style type="text/css">
	.st0{fill:#1453A1;}
	.st1{fill:#666666;}
	.st2{fill:#F39207;}
	.st3{fill:#E8367B;}
	.st4{fill:#61C2D0;}
</style>
<g id="XMLID_2_">
	<g id="XMLID_3_">
		<path id="XMLID_27_" class="st0" d="M65.73,62.7l-4.29-10.93V62.7h-2.86V44.31h2.55l4.27,10.93V44.31h2.86V62.7H65.73z"/>
		<path id="XMLID_29_" class="st0" d="M71.01,62.7V44.31H79v2.61h-5.18v5.22h4.53v2.61h-4.53v5.35H79v2.61H71.01z"/>
		<path id="XMLID_6_" class="st0" d="M92.82,62.7h-2.95l-2.19-11.93L85.51,62.7h-2.95L79.9,44.31h3.04l1.49,12.42l2.1-12.42h2.3
			l2.12,12.42l1.47-12.42h3.04L92.82,62.7z"/>
		<path id="XMLID_9_" class="st0" d="M102.66,62.52V44.13h2.78v15.78h5.15v2.61H102.66z"/>
		<path id="XMLID_11_" class="st0" d="M112.17,62.52V44.13h7.93v2.61h-5.15v5.22h4.5v2.61h-4.5v5.35h5.15v2.61H112.17z"/>
		<path id="XMLID_13_" class="st0" d="M129.08,62.52l-0.72-3.64h-4.1l-0.69,3.64h-2.93l4.34-18.39h2.71l4.29,18.39H129.08z
			 M126.32,48.57l-1.51,7.7h3.03L126.32,48.57z"/>
		<path id="XMLID_16_" class="st0" d="M141.54,60.99c-0.72,0.85-1.74,1.52-3.43,1.52h-4.49V44.13h4.49c1.69,0,2.71,0.67,3.43,1.52
			c1.19,1.37,1.29,3.41,1.29,7.65S142.73,59.62,141.54,60.99z M139.45,47.48c-0.27-0.44-0.74-0.75-1.42-0.75h-1.64v13.17h1.64
			c0.67,0,1.14-0.31,1.42-0.75c0.55-0.85,0.6-2.66,0.6-5.86S140,48.34,139.45,47.48z"/>
		<path id="XMLID_19_" class="st0" d="M144.83,62.52V44.13h7.93v2.61h-5.15v5.22h4.5v2.61h-4.5v5.35h5.15v2.61H144.83z"/>
		<path id="XMLID_21_" class="st0" d="M161.82,62.52l-2.31-7.54h-1.56v7.54h-2.78V44.13h4.47c3.23,0,4.52,1.63,4.52,5.42
			c0,2.27-0.45,3.9-2.06,4.8l2.63,8.16H161.82z M159.66,46.74h-1.71v5.63h1.71c1.49,0,1.71-1.29,1.71-2.82
			C161.37,48.03,161.15,46.74,159.66,46.74z"/>
		<path id="XMLID_24_" class="st0" d="M173.8,61.48c-0.72,0.72-1.89,1.21-3.45,1.21c-1.54,0-2.68-0.44-3.43-1.21
			c-0.84-0.88-1.14-2.01-1.14-3.95h2.78c0,0.98,0.1,1.6,0.5,2.07c0.25,0.28,0.67,0.49,1.29,0.49c0.65,0,1.07-0.18,1.34-0.52
			c0.37-0.44,0.47-1.06,0.47-2.04c0-1.96-0.3-2.45-1.66-3.02l-2.11-0.9c-1.79-0.77-2.46-1.78-2.46-4.62c0-1.65,0.47-3,1.44-3.9
			c0.77-0.7,1.76-1.11,3.03-1.11c1.41,0,2.46,0.39,3.18,1.11c0.92,0.93,1.24,2.25,1.24,4h-2.78c0-0.83-0.05-1.47-0.42-1.96
			c-0.25-0.34-0.65-0.54-1.24-0.54c-0.57,0-0.92,0.21-1.19,0.52c-0.32,0.39-0.47,1.01-0.47,1.81c0,1.5,0.22,1.96,1.46,2.48
			l2.09,0.88c2.11,0.9,2.68,2.07,2.68,5.17C174.94,59.31,174.69,60.58,173.8,61.48z"/>
	</g>
	<g id="XMLID_5_">
		<path id="XMLID_7_" class="st1" d="M62.11,69.83h-2.02l-0.44,1.05h-1.06l2.17-5.12h0.74l2.11,5.12h-1.05L62.11,69.83z
			 M61.82,69.04l-0.71-1.8l-0.72,1.8H61.82z"/>
		<path id="XMLID_35_" class="st1" d="M65.17,67.99l1.84-2.12h1.23l-2.12,2.32l2.23,2.7h-1.29l-1.78-2.25l-0.11,0.11v2.14h-0.98
			v-5.01h0.98V67.99z"/>
		<path id="XMLID_37_" class="st1" d="M71.94,69.83h-2.02l-0.44,1.05h-1.06l2.17-5.12h0.74l2.11,5.12h-1.05L71.94,69.83z
			 M71.66,69.04l-0.71-1.8l-0.72,1.8H71.66z"/>
		<path id="XMLID_40_" class="st1" d="M77.89,65.87v4.17h0.53v1.97h-0.9v-1.13h-3.08v1.13h-0.9v-1.97c0.36,0.01,0.65-0.3,0.8-0.68
			c0.1-0.25,0.18-0.62,0.18-1.32v-2.18H77.89z M75.45,68.05c0,0.77-0.08,1.16-0.17,1.4c-0.11,0.28-0.25,0.46-0.39,0.59h2.02v-3.33
			h-1.46V68.05z"/>
		<path id="XMLID_43_" class="st1" d="M81.84,66.71h-1.8v1.12h1.73v0.84h-1.73v1.37h1.8v0.84h-2.78v-5.01h2.78V66.71z"/>
		<path id="XMLID_45_" class="st1" d="M83.47,65.78h0.68l1.36,3.28l1.42-3.28h0.68l0.84,5.1h-0.99L87,67.8l-1.38,3.16h-0.27
			l-1.32-3.16l-0.51,3.09h-0.99L83.47,65.78z"/>
		<path id="XMLID_47_" class="st1" d="M90.31,65.87v3.37l2.77-3.48h0.68v5.13h-0.98V67.5l-2.77,3.48h-0.68v-5.11H90.31z"/>
		<path id="XMLID_49_" class="st1" d="M98.03,70.89h-0.98v-1.94h-0.18l-1.28,1.94h-1.17l1.49-2.03c-0.19-0.03-0.39-0.11-0.55-0.23
			c-0.3-0.22-0.56-0.63-0.56-1.21c0-0.55,0.23-0.93,0.5-1.17c0.39-0.35,0.86-0.38,1.29-0.38h1.45V70.89z M96.75,66.67
			c-0.18,0-0.95,0.01-0.95,0.75c0,0.76,0.77,0.76,0.96,0.76h0.29v-1.51H96.75z"/>
		<path id="XMLID_52_" class="st1" d="M101.6,65.78h0.68l1.36,3.28l1.42-3.28h0.68l0.84,5.1h-0.99l-0.45-3.09l-1.38,3.16h-0.27
			l-1.32-3.16l-0.51,3.09h-0.99L101.6,65.78z"/>
		<path id="XMLID_54_" class="st1" d="M112.58,68.38c0,1.53-1.1,2.62-2.68,2.62c-1.58,0-2.68-1.09-2.68-2.62
			c0-1.53,1.1-2.62,2.68-2.62C111.48,65.76,112.58,66.86,112.58,68.38z M111.57,68.38c0-1.01-0.69-1.74-1.67-1.74
			c-0.98,0-1.67,0.72-1.67,1.74c0,1.01,0.69,1.73,1.67,1.73C110.88,70.11,111.57,69.4,111.57,68.38z"/>
		<path id="XMLID_57_" class="st1" d="M117.37,65.87v5.01h-0.98v-4.17h-1.46v2.22c0,0.52,0.01,1.2-0.54,1.66
			c-0.2,0.17-0.51,0.33-1,0.33c-0.14,0-0.28-0.01-0.41-0.05v-0.84c0.08,0.02,0.17,0.05,0.28,0.05c0.23,0,0.37-0.1,0.45-0.18
			c0.26-0.26,0.25-0.69,0.25-1.17v-2.87H117.37z"/>
		<path id="XMLID_59_" class="st1" d="M123.63,68.38c0,1.53-1.1,2.62-2.68,2.62c-1.58,0-2.68-1.09-2.68-2.62
			c0-1.53,1.1-2.62,2.68-2.62C122.53,65.76,123.63,66.86,123.63,68.38z M122.62,68.38c0-1.01-0.69-1.74-1.67-1.74
			c-0.98,0-1.67,0.72-1.67,1.74c0,1.01,0.69,1.73,1.67,1.73C121.93,70.11,122.62,69.4,122.62,68.38z"/>
		<path id="XMLID_62_" class="st1" d="M128.4,65.87v4.17h0.53v1.97h-0.9v-1.13h-3.08v1.13h-0.9v-1.97c0.36,0.01,0.65-0.3,0.8-0.68
			c0.1-0.25,0.18-0.62,0.18-1.32v-2.18H128.4z M125.96,68.05c0,0.77-0.08,1.16-0.17,1.4c-0.11,0.28-0.25,0.46-0.39,0.59h2.02v-3.33
			h-1.46V68.05z"/>
		<path id="XMLID_65_" class="st1" d="M129.57,65.87h0.98v1.96h0.78c0.37,0,0.84,0.05,1.23,0.41c0.28,0.26,0.47,0.64,0.47,1.12
			c0,0.34-0.11,0.66-0.27,0.9c-0.38,0.55-1,0.62-1.42,0.62h-1.77V65.87z M130.55,70.04h0.57c0.17,0,0.9,0,0.9-0.68
			c0-0.32-0.17-0.69-0.89-0.69h-0.59V70.04z M134.44,65.87v5.01h-0.98v-5.01H134.44z"/>
		<path id="XMLID_69_" class="st1" d="M136.85,68.24l-1.5-2.37h1.17l0.88,1.56l0.92-1.56h1.17l-1.54,2.37l1.71,2.65h-1.17l-1.1-1.83
			l-1.16,1.83h-1.17L136.85,68.24z"/>
		<path id="XMLID_71_" class="st1" d="M146.05,65.87v5.01h-0.98v-4.17h-1.46v2.22c0,0.52,0.02,1.2-0.54,1.66
			c-0.2,0.17-0.51,0.33-1,0.33c-0.14,0-0.28-0.01-0.41-0.05v-0.84c0.08,0.02,0.17,0.05,0.28,0.05c0.23,0,0.37-0.1,0.45-0.18
			c0.26-0.26,0.25-0.69,0.25-1.17v-2.87H146.05z"/>
		<path id="XMLID_73_" class="st1" d="M148.17,65.87v3.37l2.77-3.48h0.68v5.13h-0.98V67.5l-2.77,3.48h-0.68v-5.11H148.17z"/>
		<path id="XMLID_75_" class="st1" d="M156.62,65.87v4.17h0.53v1.97h-0.9v-1.13h-3.08v1.13h-0.9v-1.97c0.36,0.01,0.65-0.3,0.8-0.68
			c0.1-0.25,0.18-0.62,0.18-1.32v-2.18H156.62z M154.18,68.05c0,0.77-0.08,1.16-0.17,1.4c-0.11,0.28-0.25,0.46-0.39,0.59h2.02v-3.33
			h-1.46V68.05z"/>
		<path id="XMLID_78_" class="st1" d="M160.58,66.71h-1.8v1.12h1.73v0.84h-1.73v1.37h1.8v0.84h-2.78v-5.01h2.78V66.71z"/>
		<path id="XMLID_80_" class="st1" d="M162.98,65.87c0.56,0,0.95,0.06,1.32,0.38c0.41,0.36,0.51,0.85,0.51,1.21
			c0,0.2-0.03,0.74-0.41,1.12c-0.28,0.28-0.69,0.44-1.27,0.44h-0.63v1.86h-0.98v-5.01H162.98z M162.5,68.19h0.4
			c0.19,0,0.43,0,0.64-0.16c0.18-0.14,0.27-0.37,0.27-0.59c0-0.28-0.14-0.47-0.28-0.57c-0.2-0.14-0.46-0.16-0.69-0.16h-0.34V68.19z"
			/>
		<path id="XMLID_83_" class="st1" d="M170.65,68.38c0,1.53-1.1,2.62-2.68,2.62c-1.58,0-2.68-1.09-2.68-2.62
			c0-1.53,1.1-2.62,2.68-2.62C169.55,65.76,170.65,66.86,170.65,68.38z M169.64,68.38c0-1.01-0.69-1.74-1.67-1.74
			c-0.98,0-1.67,0.72-1.67,1.74c0,1.01,0.69,1.73,1.67,1.73C168.95,70.11,169.64,69.4,169.64,68.38z"/>
		<path id="XMLID_86_" class="st1" d="M172.79,65.87c0.28,0,0.82,0,1.23,0.32c0.29,0.23,0.47,0.62,0.47,1.04
			c0,0.65-0.43,0.91-0.56,0.99c0.33,0.05,0.53,0.2,0.65,0.32c0.3,0.29,0.36,0.68,0.36,0.94c0,0.29-0.08,0.71-0.43,1.01
			c-0.38,0.33-0.83,0.41-1.27,0.41h-1.68v-5.01H172.79z M172.53,67.95h0.28c0.15,0,0.76-0.01,0.76-0.65c0-0.46-0.35-0.63-0.75-0.63
			h-0.29V67.95z M172.53,70.09h0.42c0.18,0,0.45-0.01,0.67-0.14c0.24-0.14,0.31-0.38,0.31-0.58c0-0.16-0.05-0.43-0.37-0.57
			c-0.21-0.1-0.46-0.1-0.67-0.1h-0.36V70.09z"/>
	</g>
	<g id="XMLID_4_">
		<polygon id="XMLID_34_" class="st2" points="56.94,72.46 42.38,86.17 44.93,60.16 24.6,51.84 46.39,46.54 48.44,23.61 59.3,40.35 
			85.35,33.48 62.54,36.97 44.83,5.9 40.79,41.32 5.12,50.11 38.76,63.83 37.2,97.77 		"/>
		<polygon id="XMLID_8_" class="st3" points="56.94,72.46 37.41,88.2 39.97,62.19 20.3,53.46 41.61,48.51 43.38,25.13 57.99,42.14 
			83.03,34.49 60.14,38.09 39.78,7.42 35.73,42.84 0.06,51.63 33.7,65.35 32.52,99.83 		"/>
		<polygon id="XMLID_32_" class="st4" points="56.94,72.46 42.47,80.61 45.02,54.6 25.36,45.87 46.66,40.92 48.44,17.54 
			60.45,35.56 85.66,27.8 62.63,31.45 44.83,-0.17 40.79,35.25 5.12,44.04 38.76,57.76 36.87,91.28 		"/>
	</g>
</g>
<g id="XMLID_115_">
</g>
<g id="XMLID_116_">
</g>
<g id="XMLID_117_">
</g>
<g id="XMLID_118_">
</g>
<g id="XMLID_119_">
</g>
<g id="XMLID_120_">
</g>
<g id="XMLID_121_">
</g>
<g id="XMLID_122_">
</g>
<g id="XMLID_123_">
</g>
<g id="XMLID_124_">
</g>
<g id="XMLID_125_">
</g>
<g id="XMLID_126_">
</g>
<g id="XMLID_127_">
</g>
<g id="XMLID_128_">
</g>
<g id="XMLID_129_">
</g>
</svg>
