<?xml version="1.0" encoding="utf-8"?>
<!-- Generator: Adobe Illustrator 19.0.0, SVG Export Plug-In . SVG Version: 6.00 Build 0)  -->
<svg version="1.1" id="Слой_1" xmlns="http://www.w3.org/2000/svg" xmlns:xlink="http://www.w3.org/1999/xlink" x="0px" y="0px"
	 width="690px" height="300px" viewBox="0 0 690 300" style="enable-background:new 0 0 690 300;" xml:space="preserve">
<style type="text/css">
	.st0{opacity:0.7;fill:url(#XMLID_47_);}
	.st1{fill:#4E9BA6;}
	.st2{fill:#F68F17;}
	.st3{fill:#F8BE1E;}
	.st4{fill:#F8C31E;}
	.st5{fill:#80475B;}
</style>
<g id="XMLID_2_">
	
		<radialGradient id="XMLID_47_" cx="306.9271" cy="231.6501" r="187.449" gradientTransform="matrix(1.3018 0 0 0.0607 -54.5577 208.3161)" gradientUnits="userSpaceOnUse">
		<stop  offset="0" style="stop-color:#FFFFFF"/>
		<stop  offset="0.1051" style="stop-color:#F6F6F6;stop-opacity:0.8949"/>
		<stop  offset="0.2776" style="stop-color:#DDDDDD;stop-opacity:0.7224"/>
		<stop  offset="0.4963" style="stop-color:#B5B5B5;stop-opacity:0.5037"/>
		<stop  offset="0.7496" style="stop-color:#7E7E7E;stop-opacity:0.2504"/>
		<stop  offset="1" style="stop-color:#404041;stop-opacity:0"/>
	</radialGradient>
	<ellipse id="XMLID_41_" class="st0" cx="345" cy="222.38" rx="341.25" ry="17.73"/>
	<g id="XMLID_24_">
		<g id="XMLID_90_">
			<path id="XMLID_97_" class="st1" d="M577.05,274.65c0.2,0.04,0.37,0.06,0.48,0.06C577.72,274.72,577.53,274.7,577.05,274.65z"/>
			<path id="XMLID_94_" class="st1" d="M470.02,236.29l-278.12-7.58L87.24,259.28l29.13-0.31l-13.95,11.07l16.78,0.43l13.41-0.68
				c0,0,2.87-6.47,5.17-11.4l94.41-1.99l90.34,38.33l81.75-33.61c72.04,5.58,165.01,12.8,172.77,13.54
				C567.94,272.99,470.02,236.29,470.02,236.29z M121.56,267.78l-9.54,0.11l4.7-9.2l16.53-0.34
				C127.88,262.65,121.56,267.78,121.56,267.78z"/>
			<path id="XMLID_91_" class="st1" d="M145.39,275.05l-11.48-6.62l6.12,6.41l-9.66,4.02l2.22-8.15l-13.4,0.42
				c0,0,3.98,3.53,7.14,6.18l-22.16,2.46l16.16,3.75l-7.32-0.18v0.27c-3-0.2-10.05-0.44-10.29-0.51c-0.09-0.02,0.07,0.21,0.17,0.48
				l-10.05-0.42l1.42,2.79l9.51-0.64c0.13,0.26,0.24,0.44,0.24,0.44l9.95-0.98l0.35,0.65l11.48-1.13c0.65,0.73,1.15,1.28,1.24,1.32
				c0.28,0.14,7.65-1.75,8-1.93l-4.95-3.74l0.3-1.09L145.39,275.05z M122.15,279.84c0,0,2.09,1.77,3.53,3.81l-4.13-0.11l-12.17-3.41
				l16.94-2.68c1.35,1.13,2.55,2.17,3.21,2.64L122.15,279.84z"/>
		</g>
	</g>
	<g id="XMLID_4_">
		<g id="XMLID_10_">
			<polygon id="XMLID_21_" class="st2" points="98.21,73.2 327.95,150.59 554.37,92.96 450.09,237.63 206.32,230.34 			"/>
			<path id="XMLID_18_" class="st3" d="M98.21,73.2c0,0,237.53,108.57,234.13,108.48c-3.41-0.09,222.03-88.72,222.03-88.72
				L470.1,237.23c0,0-123.92,3.87-278.11-7.94C184.01,230.22,98.21,73.2,98.21,73.2z"/>
			<g id="XMLID_11_">
				<polygon id="XMLID_15_" class="st4" points="248.47,151.18 334.83,59.44 420.38,145.9 332.34,181.68 				"/>
				<polygon id="XMLID_12_" class="st2" points="332.34,181.68 420.38,145.9 334.83,59.44 331.77,181.48 				"/>
			</g>
		</g>
		<g id="XMLID_5_">
			<path id="XMLID_9_" class="st5" d="M101.44,13.99c0.27-0.12,7.18,0.45,10.75,0.76l-0.36,0.91l12.47,2l-21.63,9.56l21.9,7.59
				l-16.67-8.03l16.4-9.12l0.07,0.01c-1.58,4.03-3.72,9.65-3.72,9.65l7.84,0.55l5.33-8.55c-0.33-0.49-7.52-5.98-7.81-5.64
				c-0.1,0.11-0.75,1.73-1.57,3.81l-11.12-5.62l-0.3,0.76l-9.47-4.78c0,0-0.17,0.42-0.4,1.04L93.47,4.8l-1.86,7.04l10.06,1.12
				C101.46,13.6,101.34,14.03,101.44,13.99z"/>
			<path id="XMLID_8_" class="st5" d="M116.9,49.92l13.33,2.3l-1.72-24.35C127.49,28.61,116.9,49.92,116.9,49.92z"/>
			<path id="XMLID_7_" class="st5" d="M130.16,55.41l-13.34-2.12l-16.78-0.42l13.45,29.81l-4.03-25.05l9.51,1.1
				c0,0,26.75,38.84,26.24,37.17C144.7,94.24,130.16,55.41,130.16,55.41z"/>
			<polygon id="XMLID_6_" class="st5" points="143.4,42.33 128.76,31.21 138.03,42.36 131.36,58.17 			"/>
		</g>
	</g>
</g>
<g id="XMLID_3_">
</g>
<g id="XMLID_13_">
</g>
<g id="XMLID_14_">
</g>
<g id="XMLID_16_">
</g>
<g id="XMLID_17_">
</g>
<g id="XMLID_19_">
</g>
<g id="XMLID_20_">
</g>
<g id="XMLID_22_">
</g>
<g id="XMLID_28_">
</g>
<g id="XMLID_33_">
</g>
<g id="XMLID_36_">
</g>
<g id="XMLID_42_">
</g>
<g id="XMLID_43_">
</g>
<g id="XMLID_44_">
</g>
<g id="XMLID_45_">
</g>
</svg>
